<svg id="Calque_1" data-name="Calque 1" xmlns="http://www.w3.org/2000/svg" viewBox="0 0 121.82 59.21"><defs><style>.cls-1{fill:#010101;}</style></defs><path class="cls-1" d="M18.14,25.66a5.62,5.62,0,0,1-.5-1.18,4.55,4.55,0,0,1-.14-1.18c0-.15,0-.3,0-.45a1,1,0,0,1,.14-.41.72.72,0,0,1,.36-.27,1,1,0,0,1,.66,0,1.61,1.61,0,0,1,.54.34,3.14,3.14,0,0,1,.52.64,4.24,4.24,0,0,1,.41.74l.25.59c.7-.54,1.45-1.09,2.27-1.65a18.49,18.49,0,0,1,5.41-2.56,10,10,0,0,1,2.74-.41,8.06,8.06,0,0,1,1.09.09,5.3,5.3,0,0,1,1.2.32,2.88,2.88,0,0,1,1,.61,1.31,1.31,0,0,1,.38,1,4.75,4.75,0,0,1-.25,2.19,9.9,9.9,0,0,1-1,2.15,17.67,17.67,0,0,1-1.49,2c-.56.67-1.12,1.3-1.68,1.91l-1.54,1.67a9.67,9.67,0,0,0-1.06,1.36,13.65,13.65,0,0,1,4-1.79,16.74,16.74,0,0,1,4.32-.56q.69,0,1.47.06a5.42,5.42,0,0,1,1.48.34,3,3,0,0,1,1.13.77,2,2,0,0,1,.45,1.41A6,6,0,0,1,39.4,36a32.75,32.75,0,0,1-2.17,3.54q-1.33,1.92-2.94,3.89c-1.08,1.32-2.11,2.51-3.11,3.58a32.12,32.12,0,0,1-2.69,2.63,3.6,3.6,0,0,1-1.7,1l-1.18-.55a6.26,6.26,0,0,1,1.13-2,28.08,28.08,0,0,1,2.15-2.44c.84-.85,1.73-1.74,2.68-2.67s1.85-1.85,2.69-2.72a28.66,28.66,0,0,0,2.22-2.56,7.14,7.14,0,0,0,1.25-2.27,1.86,1.86,0,0,0-.25-1.72,3.76,3.76,0,0,0-2.22-1.06,12.35,12.35,0,0,0-3.72.61,15.85,15.85,0,0,0-3.71,1.74,15.1,15.1,0,0,0-3.15,2.7,9.79,9.79,0,0,0-2,3.51,14.68,14.68,0,0,0,.2,2.49c.14.82.28,1.62.43,2.42s.29,1.61.43,2.43a14.34,14.34,0,0,1,.2,2.44,6.9,6.9,0,0,1-.13,1.5c-.09.39-.47.59-1.13.59l-.3,0c-.13,0-.2,0-.2-.07ZM21,28.51a30.16,30.16,0,0,0,.23,3.56,12.32,12.32,0,0,0,.91,3.46c.45-.39,1-.91,1.7-1.56s1.39-1.35,2.13-2.11,1.46-1.55,2.17-2.4S29.53,27.8,30.12,27a15.15,15.15,0,0,0,1.4-2.19,3.92,3.92,0,0,0,.52-1.7.75.75,0,0,0-.34-.73,1.65,1.65,0,0,0-.79-.18,11.1,11.1,0,0,0-2.79.46,15.93,15.93,0,0,0-3.26,1.26,10.68,10.68,0,0,0-2.69,2A3.64,3.64,0,0,0,21,28.51Z" transform="translate(-17.5 -14.06)"/><path class="cls-1" d="M42.46,31.68v-.36a.69.69,0,0,1,.34-.64,1.67,1.67,0,0,1,.79-.18,3.55,3.55,0,0,1,.68.07.74.74,0,0,1,.5.52c.09.46.18,1.08.27,1.88s.2,1.69.32,2.65.25,2,.39,3.06.27,2.08.4,3,.28,1.8.43,2.55a8.91,8.91,0,0,0,.5,1.73,48.92,48.92,0,0,1,.27-7.55,14.25,14.25,0,0,1,1.57-5.21,6.16,6.16,0,0,1,3.17-2.8,9.75,9.75,0,0,1,5-.34c.94,0,1.4.49,1.4,1.49,0,.39-.25.66-.77.79a8.5,8.5,0,0,1-1.72.27l-1.85.16a2.25,2.25,0,0,0-1.32.46,4.9,4.9,0,0,0-2.29,2.81,20.64,20.64,0,0,0-.92,4.48c-.19,1.72-.31,3.6-.39,5.64a55.35,55.35,0,0,1-.61,6.27.74.74,0,0,1-.36.68,1.68,1.68,0,0,1-.89.23,2.28,2.28,0,0,1-1-.23,1.65,1.65,0,0,1-.75-.68Z" transform="translate(-17.5 -14.06)"/><path class="cls-1" d="M60.81,47.31a27.13,27.13,0,0,1-.32-4.05,34.26,34.26,0,0,1,.25-4c.17-1.36.41-2.77.73-4.24s.68-3,1.11-4.73a1.68,1.68,0,0,1,.27-.93,2.39,2.39,0,0,1,.72-.73,4.94,4.94,0,0,1,.95-.47,2.85,2.85,0,0,1,1-.18,2.91,2.91,0,0,1,1.81.63,7.72,7.72,0,0,1,1.47,1.54,11,11,0,0,1,1.13,1.93c.32.68.58,1.26.8,1.74a26.1,26.1,0,0,1,.52,3.6,29.5,29.5,0,0,1,0,4.1,22.58,22.58,0,0,1-.64,4.1,15.43,15.43,0,0,1-1.4,3.69,8.88,8.88,0,0,1-2.33,2.81,6.8,6.8,0,0,1-3.38,1.41,1.88,1.88,0,0,1-1.58-.71,4.42,4.42,0,0,1-.8-1.72A10.2,10.2,0,0,1,60.83,49C60.82,48.34,60.81,47.76,60.81,47.31Zm2.31-.14c0,.31,0,.59,0,.86s0,.54.09.8.11.53.18.81.18.61.3,1H64a2.6,2.6,0,0,0,1.86-.73A6.1,6.1,0,0,0,67.15,48a14.43,14.43,0,0,0,.91-2.58,26.84,26.84,0,0,0,.56-2.81c.14-.92.23-1.78.28-2.58S69,38.6,69,38.11v-.9c0-.39,0-.84,0-1.34s-.08-1-.16-1.54a8.34,8.34,0,0,0-.34-1.45,3.06,3.06,0,0,0-.59-1.06,1.22,1.22,0,0,0-1-.41,1.91,1.91,0,0,0-1.7.14,3.09,3.09,0,0,0-1.13,1.51,11.25,11.25,0,0,0-.66,2.61,28.26,28.26,0,0,0-.27,3.4c0,1.23,0,2.55,0,3.94S63.12,45.78,63.12,47.17Z" transform="translate(-17.5 -14.06)"/><path class="cls-1" d="M74.17,51.21A46,46,0,0,0,74.6,46q.12-3.14.09-6.66T74.54,32c-.09-2.5-.22-4.88-.37-7.13s-.32-4.27-.52-6.05-.4-3.19-.61-4.21c.27-.18.51-.33.7-.43a1.43,1.43,0,0,1,.71-.16,1.27,1.27,0,0,1,.54.11.85.85,0,0,1,.36.48q.91,8.88,1.25,17.89t.52,17.94v1.11a2.59,2.59,0,0,1-.05.75,2.28,2.28,0,0,1-1.13.29,1.82,1.82,0,0,1-.91-.27,2.06,2.06,0,0,1-.63-.57A1,1,0,0,1,74.17,51.21Z" transform="translate(-17.5 -14.06)"/><path class="cls-1" d="M79.34,20.17a.73.73,0,0,1,.36-.72,1.8,1.8,0,0,1,.82-.18c.6,0,1,.19,1.13.59a3.77,3.77,0,0,1,.22,1.36,1.63,1.63,0,0,1-.67.7,1.23,1.23,0,0,1-.84.09,1.29,1.29,0,0,1-.73-.57A2.36,2.36,0,0,1,79.34,20.17Zm1,32.44c0-2,0-4-.11-6.21S80.07,42,80,39.81s-.09-4.4-.06-6.54a53.36,53.36,0,0,1,.4-6,1.66,1.66,0,0,1,.43-.07l.48,0a2.28,2.28,0,0,1,1,.2c.26.14.38.43.38.89,0,1.78,0,3.72,0,5.82s0,4.23,0,6.39,0,4.29,0,6.41,0,4,.09,5.75c0,.51-.06.85-.29,1a1.37,1.37,0,0,1-.84.25,1.52,1.52,0,0,1-.9-.25C80.36,53.46,80.27,53.12,80.33,52.61Z" transform="translate(-17.5 -14.06)"/><path class="cls-1" d="M88.9,71.23a10.72,10.72,0,0,0,6.27-2.08,11.16,11.16,0,0,0,3.42-4.81A22.19,22.19,0,0,0,100,57.62a75.25,75.25,0,0,0,0-7.82c-.13-2.69-.3-5.38-.53-8.08s-.32-5.22-.29-7.55a80.34,80.34,0,0,1-3.67,9.22,28.12,28.12,0,0,1-3.19,5.3,6.5,6.5,0,0,1-2.68,2.18,2.52,2.52,0,0,1-2.1-.14,3.71,3.71,0,0,1-1.47-1.68,9.08,9.08,0,0,1-.8-2.37,19.06,19.06,0,0,1,.84-4.6,31.28,31.28,0,0,1,2-4.94,28.76,28.76,0,0,1,2.78-4.53A14.55,14.55,0,0,1,94.2,29.3,6.91,6.91,0,0,1,97.87,28a5.28,5.28,0,0,1,3.67,1.48,7.41,7.41,0,0,1,.15,1.2c.08.77.17,1.78.28,3s.22,2.66.36,4.22.26,3.12.38,4.71.23,3.1.32,4.55.18,2.7.27,3.76a27,27,0,0,1-.2,5.48,37.67,37.67,0,0,1-1.2,5.64,29.64,29.64,0,0,1-2.06,5.14A14.83,14.83,0,0,1,97,71.18a7.3,7.3,0,0,1-3.58,2,6.14,6.14,0,0,1-4.19-.7l-.4,0a.74.74,0,0,1-.43-.16.28.28,0,0,1-.07-.36A2.26,2.26,0,0,1,88.9,71.23ZM87.63,46.36c.3.93.7,1.41,1.2,1.43a2.27,2.27,0,0,0,1.61-1,17.41,17.41,0,0,0,1.88-2.74c.68-1.17,1.35-2.46,2-3.85s1.32-2.81,2-4.28,1.26-2.83,1.84-4.1a2,2,0,0,0-.23-.93c-.15-.28-.48-.37-1-.25a6.07,6.07,0,0,0-2.46,1.23,12.08,12.08,0,0,0-2.22,2.33,21,21,0,0,0-1.86,3,31.56,31.56,0,0,0-1.45,3.3,24,24,0,0,0-1,3.15A11.85,11.85,0,0,0,87.63,46.36Z" transform="translate(-17.5 -14.06)"/><path class="cls-1" d="M122.33,33.72a3.22,3.22,0,0,0-3.22.5,12.93,12.93,0,0,0-2.94,3.19,36,36,0,0,0-2.67,4.69q-1.27,2.63-2.36,5c-.73,1.57-1.38,2.92-2,4S108,52.85,107.56,53a1.53,1.53,0,0,1-.84-.2c-.19-.14-.29-.48-.29-1V19.9a.45.45,0,0,1,.34-.5,2,2,0,0,1,.75,0,2.91,2.91,0,0,1,.77.2.9.9,0,0,1,.45.34l.59,25.51a10.14,10.14,0,0,0,.93-2.29c.28-1,.62-2,1-3.17a34.62,34.62,0,0,1,1.38-3.4,13.14,13.14,0,0,1,2-3.06,7.94,7.94,0,0,1,2.87-2.1,7.83,7.83,0,0,1,4-.52,3.34,3.34,0,0,1,2.5,1,3.68,3.68,0,0,1,1,2.56l.45,18.07a3.26,3.26,0,0,1-.06.53,1,1,0,0,1-.37.58,1.43,1.43,0,0,1-.81.32,2.82,2.82,0,0,1-1.34-.25Z" transform="translate(-17.5 -14.06)"/><path class="cls-1" d="M128.94,34.17a8.39,8.39,0,0,0-.84.48c-.25.16-.5.32-.74.45a2.82,2.82,0,0,1-.73.3,1.67,1.67,0,0,1-.77,0,.54.54,0,0,1-.45-.34,4.11,4.11,0,0,1-.3-.77,6.75,6.75,0,0,1-.15-.86,2.37,2.37,0,0,1,0-.66l4.35-2.49.27-11.6q.09-.59.72-.48t1.32.3a1,1,0,0,1,.29.07,1.63,1.63,0,0,1,.29.11c-.06.81-.12,1.7-.2,2.65s-.14,1.9-.2,2.85-.1,1.88-.12,2.79a18.42,18.42,0,0,0,.12,2.45l6.79-1.91c.12,0,.22.06.3.25s.15.43.22.7a7.78,7.78,0,0,1,.21,1.23L131.62,33q0,.4.06,1.95c0,1,.1,2.24.16,3.64s.12,2.92.18,4.53.12,3.12.18,4.51.11,2.61.14,3.65,0,1.7,0,2c-.06.91-.33,1.36-.8,1.36a2.44,2.44,0,0,1-1.51-.68Z" transform="translate(-17.5 -14.06)"/></svg>