<?xml version="1.0" encoding="utf-8"?>
<!-- Generator: Adobe Illustrator 25.0.1, SVG Export Plug-In . SVG Version: 6.00 Build 0)  -->
<svg version="1.1" xmlns="http://www.w3.org/2000/svg" xmlns:xlink="http://www.w3.org/1999/xlink" x="0px" y="0px"
	 viewBox="0 0 841.89 595.28" style="enable-background:new 0 0 841.89 595.28;" xml:space="preserve">
<style type="text/css">
	.st0{display:none;}
</style>
<g id="Calque_1">
	<g>
		<path d="M289.59,258.86c-0.53-0.99-0.89-1.84-1.09-2.57s-0.3-1.58-0.3-2.57c0-0.33,0.02-0.66,0.05-0.99
			c0.03-0.33,0.13-0.63,0.3-0.89c0.16-0.26,0.43-0.46,0.79-0.59s0.84-0.1,1.43,0.1c0.39,0.13,0.79,0.38,1.18,0.74
			c0.39,0.36,0.77,0.82,1.14,1.38c0.36,0.56,0.66,1.1,0.89,1.63c0.23,0.53,0.41,0.95,0.54,1.28c1.51-1.18,3.16-2.39,4.94-3.6
			c1.78-1.22,3.67-2.3,5.68-3.26c2.01-0.95,4.05-1.73,6.12-2.32c2.07-0.59,4.06-0.89,5.97-0.89c0.66,0,1.45,0.07,2.37,0.2
			s1.79,0.36,2.62,0.69s1.51,0.77,2.07,1.33c0.56,0.56,0.84,1.27,0.84,2.12c0.2,1.58,0.02,3.18-0.54,4.79
			c-0.56,1.61-1.32,3.18-2.27,4.69c-0.95,1.51-2.04,2.99-3.26,4.44c-1.22,1.45-2.44,2.83-3.65,4.15c-1.22,1.32-2.34,2.53-3.36,3.65
			c-1.02,1.12-1.79,2.11-2.32,2.96c2.7-1.78,5.61-3.08,8.74-3.9s6.27-1.23,9.43-1.23c0.99,0,2.06,0.05,3.21,0.15
			c1.15,0.1,2.22,0.35,3.21,0.74c0.99,0.39,1.81,0.95,2.47,1.68s0.99,1.74,0.99,3.06c0,1.32-0.61,3.14-1.83,5.48
			c-1.22,2.34-2.8,4.9-4.74,7.7c-1.94,2.8-4.08,5.63-6.42,8.49c-2.34,2.86-4.59,5.46-6.76,7.8c-2.17,2.34-4.13,4.25-5.87,5.73
			s-2.98,2.22-3.7,2.22l-2.57-1.18c0.33-1.25,1.15-2.73,2.47-4.44c1.32-1.71,2.88-3.49,4.69-5.33c1.81-1.84,3.75-3.78,5.82-5.82
			c2.07-2.04,4.03-4.01,5.87-5.92s3.46-3.77,4.84-5.58s2.29-3.46,2.71-4.94c0.43-1.48,0.25-2.73-0.54-3.75
			c-0.79-1.02-2.4-1.79-4.84-2.32c-2.57,0-5.27,0.44-8.1,1.33c-2.83,0.89-5.53,2.16-8.1,3.8s-4.85,3.6-6.86,5.87
			c-2.01,2.27-3.47,4.82-4.39,7.65c0,1.84,0.15,3.65,0.44,5.43c0.3,1.78,0.61,3.54,0.94,5.28c0.33,1.74,0.64,3.5,0.94,5.28
			s0.44,3.55,0.44,5.33c0,1.32-0.1,2.4-0.3,3.26c-0.2,0.86-1.02,1.28-2.47,1.28c-0.13,0-0.35-0.02-0.64-0.05
			c-0.3-0.03-0.44-0.08-0.44-0.15L289.59,258.86z M295.91,265.08c0,2.44,0.16,5.02,0.49,7.75c0.33,2.73,0.99,5.25,1.97,7.55
			c0.99-0.86,2.22-1.99,3.7-3.41c1.48-1.42,3.03-2.95,4.64-4.59c1.61-1.65,3.19-3.39,4.74-5.23c1.55-1.84,2.96-3.62,4.25-5.33
			c1.28-1.71,2.3-3.31,3.06-4.79s1.14-2.71,1.14-3.7c0-0.79-0.25-1.32-0.74-1.58c-0.49-0.26-1.07-0.39-1.73-0.39
			c-1.58,0-3.6,0.33-6.07,0.99s-4.84,1.58-7.11,2.76s-4.23,2.62-5.87,4.29S295.91,262.98,295.91,265.08z"/>
		<path d="M342.61,272v-0.79c0-0.66,0.25-1.12,0.74-1.38c0.49-0.26,1.07-0.39,1.73-0.39c0.53,0,1.02,0.05,1.48,0.15
			s0.82,0.48,1.09,1.14c0.2,0.99,0.39,2.35,0.59,4.1s0.43,3.67,0.69,5.78s0.54,4.33,0.84,6.66c0.3,2.34,0.59,4.54,0.89,6.61
			s0.61,3.93,0.94,5.58c0.33,1.65,0.69,2.9,1.09,3.75c-0.2-6.32,0-11.8,0.59-16.44c0.59-4.64,1.73-8.42,3.41-11.35
			c1.68-2.93,3.98-4.97,6.91-6.12c2.93-1.15,6.6-1.4,11.01-0.74c2.04,0,3.06,1.09,3.06,3.26c0,0.86-0.56,1.43-1.68,1.73
			c-1.12,0.3-2.37,0.49-3.75,0.59c-1.38,0.1-2.73,0.21-4.05,0.35c-1.32,0.13-2.27,0.46-2.86,0.99c-2.37,1.32-4.03,3.36-4.99,6.12
			c-0.95,2.76-1.63,6.02-2.02,9.77c-0.39,3.75-0.67,7.85-0.84,12.29c-0.16,4.44-0.61,9-1.33,13.67c0,0.66-0.26,1.15-0.79,1.48
			c-0.53,0.33-1.17,0.49-1.93,0.49s-1.48-0.16-2.17-0.49c-0.69-0.33-1.23-0.82-1.63-1.48L342.61,272z"/>
		<path d="M382.59,306.06c-0.46-3.03-0.69-5.97-0.69-8.84c0-2.86,0.18-5.78,0.54-8.74c0.36-2.96,0.89-6.04,1.58-9.23
			c0.69-3.19,1.5-6.63,2.42-10.32c0-0.72,0.2-1.4,0.59-2.02s0.92-1.15,1.58-1.58c0.66-0.43,1.35-0.77,2.07-1.04s1.42-0.39,2.07-0.39
			c1.45,0,2.76,0.46,3.95,1.38c1.18,0.92,2.25,2.04,3.21,3.36c0.95,1.32,1.78,2.71,2.47,4.2c0.69,1.48,1.27,2.75,1.73,3.8
			c0.53,2.3,0.9,4.92,1.14,7.85c0.23,2.93,0.25,5.91,0.05,8.93s-0.66,6.01-1.38,8.93c-0.72,2.93-1.74,5.61-3.06,8.05
			c-1.32,2.44-3.01,4.48-5.08,6.12c-2.07,1.65-4.52,2.67-7.36,3.06c-1.51,0-2.67-0.51-3.46-1.53c-0.79-1.02-1.37-2.27-1.73-3.75
			c-0.36-1.48-0.56-2.98-0.59-4.49C382.61,308.29,382.59,307.04,382.59,306.06z M387.62,305.76c0,0.66,0.02,1.28,0.05,1.88
			c0.03,0.59,0.1,1.17,0.2,1.73s0.23,1.15,0.39,1.78c0.16,0.63,0.38,1.33,0.64,2.12h0.59c1.58,0,2.93-0.53,4.05-1.58
			c1.12-1.05,2.07-2.42,2.86-4.1c0.79-1.68,1.45-3.55,1.97-5.63c0.53-2.07,0.94-4.11,1.23-6.12c0.3-2.01,0.49-3.88,0.59-5.63
			s0.15-3.14,0.15-4.2v-1.97c0-0.86-0.03-1.83-0.1-2.91c-0.07-1.09-0.18-2.2-0.35-3.36c-0.16-1.15-0.41-2.2-0.74-3.16
			c-0.33-0.95-0.76-1.73-1.28-2.32c-0.53-0.59-1.22-0.89-2.07-0.89c-1.45-0.46-2.68-0.36-3.7,0.3c-1.02,0.66-1.84,1.76-2.47,3.31
			c-0.63,1.55-1.1,3.44-1.43,5.68c-0.33,2.24-0.53,4.71-0.59,7.4c-0.07,2.7-0.08,5.56-0.05,8.59S387.62,302.73,387.62,305.76z"/>
		<path d="M411.71,314.55c0.46-3.03,0.77-6.81,0.94-11.35c0.16-4.54,0.23-9.38,0.2-14.51c-0.03-5.13-0.15-10.43-0.35-15.89
			s-0.46-10.65-0.79-15.55c-0.33-4.9-0.71-9.3-1.14-13.18s-0.87-6.94-1.33-9.18c0.59-0.39,1.1-0.71,1.53-0.94s0.94-0.35,1.53-0.35
			c0.46,0,0.86,0.08,1.18,0.25c0.33,0.16,0.59,0.51,0.79,1.04c1.32,12.9,2.22,25.9,2.71,39s0.87,26.13,1.14,39.1
			c0,0.59,0,1.4,0,2.42s-0.03,1.56-0.1,1.63c-0.92,0.46-1.74,0.67-2.47,0.64c-0.72-0.03-1.38-0.23-1.97-0.59
			c-0.59-0.36-1.05-0.77-1.38-1.23C411.88,315.37,411.71,314.94,411.71,314.55z"/>
		<path d="M422.97,246.92c0-0.79,0.26-1.32,0.79-1.58c0.53-0.26,1.12-0.39,1.78-0.39c1.32,0,2.14,0.43,2.47,1.28
			c0.33,0.86,0.49,1.84,0.49,2.96c-0.39,0.72-0.89,1.23-1.48,1.53c-0.59,0.3-1.2,0.36-1.83,0.2c-0.63-0.16-1.15-0.58-1.58-1.23
			C423.18,249.03,422.97,248.1,422.97,246.92z M425.14,317.61c0-4.28-0.08-8.79-0.25-13.53c-0.16-4.74-0.33-9.53-0.49-14.36
			c-0.16-4.84-0.21-9.59-0.15-14.27s0.36-9.05,0.89-13.13c0.13-0.07,0.44-0.12,0.94-0.15s0.84-0.05,1.04-0.05
			c0.92,0,1.66,0.15,2.22,0.44c0.56,0.3,0.84,0.94,0.84,1.93c0,3.88-0.02,8.11-0.05,12.69c-0.03,4.57-0.07,9.21-0.1,13.92
			c-0.03,4.71-0.05,9.36-0.05,13.97s0.07,8.79,0.2,12.54c0.07,1.12-0.15,1.86-0.64,2.22c-0.49,0.36-1.1,0.54-1.83,0.54
			c-0.79,0-1.45-0.18-1.97-0.54S425.01,318.73,425.14,317.61z"/>
		<path d="M443.8,358.18c5.79-0.33,10.35-1.84,13.67-4.54c3.32-2.7,5.81-6.19,7.45-10.47s2.63-9.17,2.96-14.66
			c0.33-5.5,0.36-11.17,0.1-17.03s-0.64-11.73-1.14-17.62c-0.49-5.89-0.71-11.37-0.64-16.44c-2.83,8.29-5.5,14.99-8,20.09
			c-2.5,5.1-4.82,8.95-6.96,11.55c-2.14,2.6-4.08,4.18-5.82,4.74c-1.74,0.56-3.27,0.46-4.59-0.3c-1.32-0.76-2.39-1.97-3.21-3.65
			c-0.82-1.68-1.4-3.41-1.73-5.18c0.13-3.03,0.74-6.37,1.83-10.02c1.09-3.65,2.5-7.24,4.25-10.76c1.74-3.52,3.77-6.81,6.07-9.87
			c2.3-3.06,4.74-5.46,7.31-7.21s5.23-2.67,8-2.76c2.76-0.1,5.43,0.97,8,3.21c0.07,0.07,0.18,0.94,0.35,2.62
			c0.16,1.68,0.36,3.88,0.59,6.61c0.23,2.73,0.49,5.79,0.79,9.18c0.3,3.39,0.58,6.81,0.84,10.27c0.26,3.46,0.49,6.76,0.69,9.92
			c0.2,3.16,0.39,5.89,0.59,8.19c0.26,3.75,0.12,7.73-0.44,11.95c-0.56,4.21-1.43,8.31-2.62,12.29c-1.18,3.98-2.68,7.72-4.49,11.21
			c-1.81,3.49-3.88,6.35-6.22,8.59c-2.34,2.24-4.94,3.67-7.8,4.29c-2.86,0.63-5.91,0.12-9.13-1.53c-0.2,0-0.49-0.02-0.89-0.05
			c-0.39-0.03-0.71-0.15-0.94-0.35c-0.23-0.2-0.28-0.46-0.15-0.79C442.65,359.34,443.08,358.84,443.8,358.18z M441.04,303.98
			c0.66,2.04,1.53,3.08,2.62,3.11c1.09,0.03,2.25-0.66,3.5-2.07c1.25-1.42,2.62-3.41,4.1-5.97s2.95-5.36,4.39-8.39
			c1.45-3.03,2.88-6.14,4.29-9.33c1.42-3.19,2.75-6.17,4-8.93c0-0.72-0.16-1.4-0.49-2.02c-0.33-0.63-1.05-0.81-2.17-0.54
			c-1.84,0.39-3.64,1.28-5.38,2.67s-3.36,3.08-4.84,5.08c-1.48,2.01-2.83,4.21-4.05,6.61c-1.22,2.4-2.27,4.8-3.16,7.21
			s-1.58,4.69-2.07,6.86C441.28,300.43,441.04,302.34,441.04,303.98z"/>
		<path d="M516.66,276.44c-2.44-0.92-4.77-0.56-7.01,1.09c-2.24,1.65-4.38,3.97-6.42,6.96c-2.04,2.99-3.98,6.4-5.82,10.22
			s-3.55,7.44-5.13,10.86c-1.58,3.42-3.01,6.35-4.29,8.79c-1.28,2.44-2.45,3.78-3.5,4.05c-0.79,0-1.4-0.15-1.83-0.44
			c-0.43-0.3-0.64-1.04-0.64-2.22v-69.4c0-0.59,0.25-0.95,0.74-1.09c0.49-0.13,1.04-0.16,1.63-0.1c0.59,0.07,1.15,0.21,1.68,0.44
			c0.53,0.23,0.86,0.48,0.99,0.74l1.28,55.58c0.72-1.18,1.4-2.85,2.02-4.99c0.63-2.14,1.37-4.44,2.22-6.91
			c0.86-2.47,1.86-4.94,3.01-7.4c1.15-2.47,2.58-4.69,4.29-6.66c1.71-1.97,3.8-3.5,6.27-4.59c2.47-1.09,5.38-1.46,8.74-1.14
			c2.24,0,4.05,0.71,5.43,2.12c1.38,1.42,2.11,3.27,2.17,5.58l0.99,39.39c0,0.26-0.05,0.64-0.15,1.14s-0.36,0.92-0.79,1.28
			c-0.43,0.36-1.02,0.59-1.78,0.69s-1.73-0.08-2.91-0.54L516.66,276.44z"/>
		<path d="M531.07,277.43c-0.66,0.33-1.27,0.67-1.83,1.04s-1.1,0.69-1.63,0.99c-0.53,0.3-1.05,0.51-1.58,0.64
			c-0.53,0.13-1.09,0.13-1.68,0c-0.39,0-0.72-0.25-0.99-0.74c-0.26-0.49-0.48-1.05-0.64-1.68s-0.28-1.25-0.35-1.88
			c-0.07-0.63-0.07-1.1,0-1.43l9.48-5.43l0.59-25.27c0.13-0.86,0.66-1.2,1.58-1.04c0.92,0.16,1.88,0.38,2.86,0.64
			c0.13,0,0.35,0.05,0.64,0.15c0.3,0.1,0.51,0.18,0.64,0.25c-0.13,1.78-0.28,3.7-0.44,5.78c-0.16,2.07-0.31,4.15-0.44,6.22
			c-0.13,2.07-0.21,4.1-0.25,6.07c-0.03,1.97,0.05,3.75,0.25,5.33l14.81-4.15c0.26-0.07,0.48,0.12,0.64,0.54
			c0.16,0.43,0.33,0.94,0.49,1.53c0.16,0.59,0.31,1.48,0.44,2.67l-16.78,7.11c0,0.59,0.05,2.01,0.15,4.25
			c0.1,2.24,0.21,4.89,0.35,7.95c0.13,3.06,0.26,6.35,0.39,9.87c0.13,3.52,0.26,6.8,0.39,9.82c0.13,3.03,0.23,5.68,0.3,7.95
			c0.07,2.27,0.1,3.7,0.1,4.29c-0.13,1.97-0.71,2.96-1.73,2.96c-1.02,0-2.12-0.49-3.31-1.48L531.07,277.43z"/>
	</g>
</g>
<g id="Calque_2" class="st0">
</g>
</svg>
