<svg id="Calque_2" data-name="Calque 2" xmlns="http://www.w3.org/2000/svg" viewBox="0 0 222.07342 119.04002"><defs><style>.cls-1{fill:#ea515c;}</style></defs><path class="cls-1" d="M474.35349,264.58193q.681,31.183.07109,62.375c-.063,3.21874,4.937,3.21864,5,0q.60988-31.18444-.07109-62.375c-.07016-3.2127-5.07041-3.22409-5,0Z" transform="translate(-257.63931 -236.15931)"/><path class="cls-1" d="M476.45391,325.02246c-6.51.40929-13.31133,3.01215-17.76246,7.92649a66.20923,66.20923,0,0,0-8.904,12.72047,18.81147,18.81147,0,0,0-2.59748,7.02991,2.51822,2.51822,0,0,0,2.5,2.5,2.55387,2.55387,0,0,0,2.5-2.5c.03591-.3796-.16834.5728.03754-.12143.07092-.23916.125-.48265.20014-.72108.08441-.26782.18277-.53027.28039-.79343q.08152-.21155.16814-.42106-.14826.354.0327-.06169c.57042-1.25406,1.221-2.46911,1.91211-3.66047a74.633,74.633,0,0,1,5.1929-7.76141,23.85164,23.85164,0,0,1,4.85591-5.03253,22.72548,22.72548,0,0,1,11.5841-4.10377c3.19591-.20093,3.21862-5.20235,0-5Z" transform="translate(-257.63931 -236.15931)"/><path class="cls-1" d="M477.51809,262.17123c-6.1998-.85262-11.57986-4.98688-16.02306-9.18606a63.24919,63.24919,0,0,1-12.12162-15.409c-1.5451-2.82357-5.86426-.30326-4.31736,2.52359a67.66634,67.66634,0,0,0,13.17522,16.67633c4.92974,4.60467,11.07923,9.27062,17.95762,10.21656a2.5863,2.5863,0,0,0,3.07529-1.7461c.32073-1.16726-.3998-2.89015-1.74609-3.0753Z" transform="translate(-257.63931 -236.15931)"/><path class="cls-1" d="M447.21473,236.33794H293.25434c-3.21727,0-3.2226,5,0,5H447.21473c3.21726,0,3.22259-5,0-5Z" transform="translate(-257.63931 -236.15931)"/><path class="cls-1" d="M449.69,350.19933H295.72958c-3.21726,0-3.22259,5,0,5H449.69c3.21726,0,3.22259-5,0-5Z" transform="translate(-257.63931 -236.15931)"/><path class="cls-1" d="M297.63094,351.6349c-2.16532-7.06791-5.42358-13.88429-10.44857-19.37794-4.39719-4.8073-10.52322-7.93684-16.69726-9.80893a30.1319,30.1319,0,0,0-10.31016-1.47189c-3.19918.181-3.22016,5.18218,0,5,6.97985-.3949,14.55933,2.66456,20.11939,6.73323,6.47039,4.73482,10.23083,12.79819,12.5152,20.25473.93981,3.06767,5.76765,1.7595,4.8214-1.3292Z" transform="translate(-257.63931 -236.15931)"/><path class="cls-1" d="M290.79581,240.01523c.25316,1.22308-.73083,2.5062-1.40294,3.43282-.92041,1.26893-1.94783,2.47295-2.94328,3.68348a74.6258,74.6258,0,0,1-6.89509,7.48346c-4.40447,4.07113-9.90285,7.41825-16.01108,7.85566a2.56059,2.56059,0,0,0-2.5,2.5,2.52089,2.52089,0,0,0,2.5,2.5c7.65476-.54815,14.37823-4.4524,19.87687-9.62823a84.12539,84.12539,0,0,0,7.70939-8.5828c2.498-3.09948,5.37308-6.29531,4.48752-10.57359a2.50063,2.50063,0,1,0-4.82139,1.3292Z" transform="translate(-257.63931 -236.15931)"/><path class="cls-1" d="M259.7228,266.64226a15.461,15.461,0,0,1,1.17359,5.9331c.10271,2.37263.08132,4.75544.07139,7.12961q-.02991,7.15738-.3899,14.30824-.7287,14.4543-2.81363,28.79833a2.58282,2.58282,0,0,0,1.7461,3.0753,2.51831,2.51831,0,0,0,3.0753-1.7461c1.48587-10.15424,2.51628-20.36956,3.01669-30.62054q.373-7.64193.368-15.29607c-.00331-4.78483.1465-9.67719-1.93015-14.10546a2.52112,2.52112,0,0,0-3.42048-.89688,2.55621,2.55621,0,0,0-.89688,3.42047Z" transform="translate(-257.63931 -236.15931)"/><path class="cls-1" d="M441.88557,242.95086c9.31349,10.05078,16.58729,25.09975,31.67586,27.16859a2.58648,2.58648,0,0,0,3.0753-1.7461,2.5329,2.5329,0,0,0-1.7461-3.07529,63.31647,63.31647,0,0,1-31.36855-19.37682,2.5,2.5,0,1,0-3.53553,3.53554,68.0212,68.0212,0,0,0,33.57488,20.66267l1.3292-4.82139c-13.99675-1.91914-20.82355-16.5523-29.46953-25.88274-2.19182-2.36534-5.7212,1.17683-3.53553,3.53554Z" transform="translate(-257.63931 -236.15931)"/><path class="cls-1" d="M442.52153,240.54451a491.1371,491.1371,0,0,0-55.48791-1.43714c-3.20763.11964-3.22329,5.12022,0,5a491.1371,491.1371,0,0,1,55.48791,1.43714,2.5217,2.5217,0,0,0,2.5-2.5,2.54907,2.54907,0,0,0-2.5-2.5Z" transform="translate(-257.63931 -236.15931)"/><path class="cls-1" d="M440.9473,247.20053l21.45877,23.10413c2.19454,2.3628,5.72413-1.17913,3.53553-3.53554L444.48283,243.665c-2.19454-2.36281-5.72412,1.17913-3.53553,3.53553Z" transform="translate(-257.63931 -236.15931)"/><path class="cls-1" d="M434.69814,246.55069A222.413,222.413,0,0,1,452.49146,273.027c1.60186,2.78991,5.92387.27442,4.31735-2.52359a231.09073,231.09073,0,0,0-18.57514-27.48829,2.5139,2.5139,0,0,0-3.53553,0,2.563,2.563,0,0,0,0,3.53554Z" transform="translate(-257.63931 -236.15931)"/><path class="cls-1" d="M429.41858,244.92865l16.81612,26.10966c1.73662,2.69638,6.06656.19231,4.31735-2.5236l-16.81611-26.10965c-1.73663-2.69639-6.06656-.19232-4.31736,2.52359Z" transform="translate(-257.63931 -236.15931)"/><path class="cls-1" d="M423.13427,245.26423q8.35042,13.36366,15.56545,27.38756c1.47244,2.86224,5.78832.33577,4.31735-2.5236q-7.20859-14.0126-15.56545-27.38755c-1.70139-2.72284-6.02908-.21578-4.31735,2.52359Z" transform="translate(-257.63931 -236.15931)"/><path class="cls-1" d="M429.20868,246.74982a3.04258,3.04258,0,0,0,1.05982-4.23528c-1.73741-2.69-6.03227-.22167-4.31736,2.52359a372.41656,372.41656,0,0,1,18.44876,33.1867,2.52454,2.52454,0,0,0,3.42048.89688,2.55154,2.55154,0,0,0,.89688-3.42048,372.42282,372.42282,0,0,0-18.44876-33.18669l-4.31736,2.52359.13186.20416-.34132-1.2618.00806.24752.34133-1.26179-.10263.22538.89688-.89688-.20024.13775a2.564,2.564,0,0,0-.89688,3.42047,2.52269,2.52269,0,0,0,3.42048.89688Z" transform="translate(-257.63931 -236.15931)"/><path class="cls-1" d="M388.0084,238.61251q-27.62622,1.82495-55.33435,1.64753c-9.15731-.06183-18.34492-.59926-27.49888-.23253-4.15419.16642-8.31519.551-11.73423,3.14823-3.1183,2.3688-5.36423,5.70278-8.02831,8.53855a80.45749,80.45749,0,0,1-20.89821,15.93317c-2.84195,1.51167-.31882,5.82926,2.5236,4.31736a85.19934,85.19934,0,0,0,18.9383-13.71243c2.77974-2.66714,5.21187-5.5963,7.75608-8.4779a14.92794,14.92794,0,0,1,3.89342-3.38655,13.108,13.108,0,0,1,5.45633-1.25477c8.92522-.5934,17.92653.011,26.86069.10354q13.65584.14142,27.31086-.20918,15.38994-.39516,30.7547-1.415a2.55875,2.55875,0,0,0,2.5-2.5,2.52164,2.52164,0,0,0-2.5-2.5Z" transform="translate(-257.63931 -236.15931)"/><path class="cls-1" d="M298.49959,239.1457l-2.32365-.17005a2.56941,2.56941,0,0,0-2.5,2.5l.0893.6646a2.49763,2.49763,0,0,0,.64293,1.10317l.506.39091a2.4884,2.4884,0,0,0,1.2618.34132l2.32365.17005a2.5694,2.5694,0,0,0,2.5-2.5l-.0893-.6646a2.49774,2.49774,0,0,0-.64293-1.10317l-.506-.39091a2.4885,2.4885,0,0,0-1.2618-.34132Z" transform="translate(-257.63931 -236.15931)"/><path class="cls-1" d="M263.853,270.74179l-.47863,25.1588c-.15267,8.025.14269,16.2701-1.82911,24.111-.78494,3.12132,4.03586,4.4529,4.82139,1.3292,2.04376-8.127,1.84-16.62407,1.99824-24.942l.48811-25.657c.06123-3.21873-4.93877-3.21878-5,0Z" transform="translate(-257.63931 -236.15931)"/><path class="cls-1" d="M266.1766,321.07331a51.90487,51.90487,0,0,1,20.3488,10.971,51.21959,51.21959,0,0,1,7.79781,8.50667,120.94816,120.94816,0,0,1,7.19763,12.15316c1.56125,2.81431,5.88119.29538,4.31736-2.52359-3.53876-6.379-6.98913-12.68146-12.01888-18.037a57.05559,57.05559,0,0,0-26.31352-15.89166c-3.10545-.861-4.4307,3.9615-1.3292,4.82139Z" transform="translate(-257.63931 -236.15931)"/><path class="cls-1" d="M300.19919,346.81745c-3.0531-6.6994-7.19522-13.13348-12.88991-17.89181-6.49071-5.42347-14.79523-8.76418-22.74483-11.41665-3.05926-1.02075-4.3713,3.80637-1.3292,4.8214a96.9266,96.9266,0,0,1,11.33226,4.56482,43.19688,43.19688,0,0,1,9.513,5.82532c5.25036,4.4897,8.959,10.38366,11.80129,16.62051a2.5192,2.5192,0,0,0,3.42047.89688,2.5592,2.5592,0,0,0,.89688-3.42047Z" transform="translate(-257.63931 -236.15931)"/><path class="cls-1" d="M298.81444,351.944a34.61077,34.61077,0,0,0,6.94694.19583,2.66147,2.66147,0,0,0,1.76777-.73223,2.5,2.5,0,0,0-1.76777-4.26777,34.61077,34.61077,0,0,1-6.94694-.19583,2.48619,2.48619,0,0,0-1.76777.73223,2.5,2.5,0,0,0,0,3.53553l.506.39091a2.48851,2.48851,0,0,0,1.2618.34133Z" transform="translate(-257.63931 -236.15931)"/><path class="cls-1" d="M447.18961,346.74936q-28.474-.07566-56.948.06991-28.47372.14662-56.9457.51629-7.86719.10217-15.73412.22138-3.99591.06054-7.99175.12549-1.99791.03247-3.99582.066a12.03513,12.03513,0,0,0-1.31781-.00508c.11433-.02253-.27358-.03638-.26563-.07175-.01778.07911.45942.38764.482.50422a2.52434,2.52434,0,0,0-3.0753-1.7461,2.5519,2.5519,0,0,0-1.7461,3.0753c.4214,2.17428,2.58849,3.0861,4.57717,3.23694,2.24925.1706,4.5849-.04759,6.83991-.08377q7.36735-.11823,14.73493-.2215,14.73514-.20657,29.471-.35333,29.34684-.2923,58.69541-.3475,16.60986-.03125,33.21975.01346c3.2176.00855,3.22219-4.99143,0-5Z" transform="translate(-257.63931 -236.15931)"/><path class="cls-1" d="M298.17629,248.57521a115.83856,115.83856,0,0,1,13.2653,14.57138c4.23041,5.25487,8.52325,10.45246,12.98649,15.51222a352.81935,352.81935,0,0,0,27.91714,28.50084c5.27154,4.76176,10.94874,9.23373,17.52154,12.05042a2.58405,2.58405,0,0,0,3.42048-.89688,2.51776,2.51776,0,0,0-.89688-3.42048A57.76662,57.76662,0,0,1,357.17621,304.78c-4.91221-4.32256-9.59255-8.92883-14.19294-13.57914A391.21647,391.21647,0,0,1,316.401,261.381c-4.59733-5.71015-9.17282-11.47578-14.68915-16.34135a2.55944,2.55944,0,0,0-3.53554,0,2.52374,2.52374,0,0,0,0,3.53553Z" transform="translate(-257.63931 -236.15931)"/><path class="cls-1" d="M370.3602,308.51807q-21.82923-20.16314-42.23886-41.79189-5.81347-6.16435-11.5044-12.44254c-2.16638-2.38863-5.69386,1.15578-3.53553,3.53553q19.96369,22.01175,41.40589,42.61731,6.11121,5.8693,12.33737,11.61712c2.36087,2.18069,5.90541-1.34653,3.53553-3.53553Z" transform="translate(-257.63931 -236.15931)"/><path class="cls-1" d="M299.57889,245.15714c11.75706,10.14308,23.69648,20.43394,37.49176,27.74034a95.68161,95.68161,0,0,0,12.32461,5.4603,2.52345,2.52345,0,0,0,3.0753-1.7461,2.55141,2.55141,0,0,0-1.7461-3.07529c-14.07288-5.07329-26.32991-14.03595-37.74263-23.51449-3.32311-2.75992-6.59675-5.57863-9.8674-8.40029a2.56325,2.56325,0,0,0-3.53554,0,2.52222,2.52222,0,0,0,0,3.53553Z" transform="translate(-257.63931 -236.15931)"/><path class="cls-1" d="M324.91966,262.00646c3.21726,0,3.22259-5,0-5-3.21726,0-3.22259,5,0,5Z" transform="translate(-257.63931 -236.15931)"/><path class="cls-1" d="M301.54638,244.46517a232.91357,232.91357,0,0,0,48.51208,24.27163,2.52307,2.52307,0,0,0,3.07529-1.7461,2.55187,2.55187,0,0,0-1.7461-3.0753A227.36686,227.36686,0,0,1,304.07,240.14782c-2.69676-1.77243-5.20444,2.55539-2.5236,4.31735Z" transform="translate(-257.63931 -236.15931)"/><path class="cls-1" d="M358.03007,261.02052q-18.28062-8.93974-37.20451-16.46649a2.51741,2.51741,0,0,0-3.0753,1.7461,2.55991,2.55991,0,0,0,1.7461,3.07529q18.30335,7.2912,36.01011,15.96245a2.565,2.565,0,0,0,3.42048-.89688,2.52308,2.52308,0,0,0-.89688-3.42047Z" transform="translate(-257.63931 -236.15931)"/><path class="cls-1" d="M306.03306,246.04153c8.02543,3.71337,16.88918,5.60889,25.372,7.98886l26.6509,7.47729c3.10316.87064,4.42762-3.95209,1.3292-4.82139l-26.17071-7.34257q-6.45386-1.81072-12.90768-3.62158a78.08161,78.08161,0,0,1-11.75011-3.998,2.57282,2.57282,0,0,0-3.42047.89688,2.52056,2.52056,0,0,0,.89688,3.42047Z" transform="translate(-257.63931 -236.15931)"/><path class="cls-1" d="M375.45319,247.90433l-38.64481.404c-3.21546.03362-3.22369,5.0337,0,5l38.64481-.404c3.21546-.03361,3.22369-5.0337,0-5Z" transform="translate(-257.63931 -236.15931)"/><path class="cls-1" d="M322.36445,247.76364a161.83327,161.83327,0,0,0,51.10654,7.71777c3.21543-.03406,3.2237-5.03414,0-5a157.284,157.284,0,0,1-49.77734-7.53917c-3.07075-.98629-4.38563,3.8397-1.3292,4.8214Z" transform="translate(-257.63931 -236.15931)"/><path class="cls-1" d="M391.2278,244.037a292.2965,292.2965,0,0,1-62.32315,2.104,2.52236,2.52236,0,0,0-2.5,2.5,2.54822,2.54822,0,0,0,2.5,2.5,294.54286,294.54286,0,0,0,49.37967-.56389c4.77085-.45817,9.52814-1.04143,14.27268-1.71871a2.516,2.516,0,0,0,1.7461-3.07529,2.56564,2.56564,0,0,0-3.0753-1.7461Z" transform="translate(-257.63931 -236.15931)"/><path class="cls-1" d="M327.85023,247.20883a125.58,125.58,0,0,0,55.53479.84955c3.14679-.66291,1.8151-5.48378-1.3292-4.82139a119.715,119.715,0,0,1-52.87639-.84955c-3.12547-.76144-4.459,4.0589-1.3292,4.82139Z" transform="translate(-257.63931 -236.15931)"/><path class="cls-1" d="M392.98278,240.96042q-28.05865,1.58271-56.1778.66035c-3.21834-.10573-3.21455,4.89439,0,5q28.08812.92273,56.1778-.66035c3.19927-.18047,3.2202-5.18165,0-5Z" transform="translate(-257.63931 -236.15931)"/><path class="cls-1" d="M335.81755,246.91259a470.80918,470.80918,0,0,1,53.84955,3.75829,2.51289,2.51289,0,0,0,2.5-2.5,2.563,2.563,0,0,0-2.5-2.5,470.80918,470.80918,0,0,0-53.84955-3.75829c-3.21848-.03964-3.22038,4.96034,0,5Z" transform="translate(-257.63931 -236.15931)"/><path class="cls-1" d="M418.03037,241.14075a93.24047,93.24047,0,0,1-38.26779.36667,2.56328,2.56328,0,0,0-3.0753,1.7461,2.524,2.524,0,0,0,1.7461,3.0753,99.438,99.438,0,0,0,40.92619-.36667c3.14122-.69075,1.8119-5.51211-1.3292-4.8214Z" transform="translate(-257.63931 -236.15931)"/><path class="cls-1" d="M391.64271,246.40928a106.21723,106.21723,0,0,1,29.8912,3.89591,15.22418,15.22418,0,0,1,2.98906.97864,5.69264,5.69264,0,0,1,1.95093,2.1439c1.385,2.11846,2.73135,4.26308,4.05786,6.41852q3.98008,6.46724,7.64234,13.1231,4.1191,7.48513,7.82481,15.18673a2.52311,2.52311,0,0,0,3.42047.89688,2.55337,2.55337,0,0,0,.89688-3.42047,314.965,314.965,0,0,0-15.21872-27.90542c-1.40592-2.29228-2.83476-4.5721-4.30629-6.82294a10.61036,10.61036,0,0,0-5.52619-4.70014,84.08469,84.08469,0,0,0-15.41715-3.51079,113.44468,113.44468,0,0,0-18.2052-1.28392c-3.21522.03726-3.22377,5.03736,0,5Z" transform="translate(-257.63931 -236.15931)"/><path class="cls-1" d="M419.35754,244.55333A257.87279,257.87279,0,0,1,445.908,289.051q3.11032,6.65973,5.8213,13.49314a2.57664,2.57664,0,0,0,3.07529,1.7461,2.51752,2.51752,0,0,0,1.7461-3.0753A260.95562,260.95562,0,0,0,432.207,254.23565q-4.08769-6.22584-8.53214-12.20591a2.57691,2.57691,0,0,0-3.42047-.89688,2.51809,2.51809,0,0,0-.89688,3.42047Z" transform="translate(-257.63931 -236.15931)"/><path class="cls-1" d="M417.3817,249.45293q11.86243,22.38779,22.5809,45.355a2.52079,2.52079,0,0,0,3.42047.89688,2.55672,2.55672,0,0,0,.89688-3.42048q-10.71452-22.9593-22.5809-45.355c-1.50713-2.84437-5.82452-.32084-4.31735,2.5236Z" transform="translate(-257.63931 -236.15931)"/><path class="cls-1" d="M418.09643,247.73558a351.254,351.254,0,0,1,28.65312,48.79627,2.52334,2.52334,0,0,0,3.42048.89688,2.55309,2.55309,0,0,0,.89688-3.42047A351.255,351.255,0,0,0,422.41379,245.212a2.56709,2.56709,0,0,0-3.42048-.89688,2.52144,2.52144,0,0,0-.89688,3.42047Z" transform="translate(-257.63931 -236.15931)"/><path class="cls-1" d="M423.43181,247.61207c-5.27829-1.6139-10.83756-1.59917-16.304-1.59256q-8.57895.01038-17.1571.152-16.90695.27909-33.80041,1.06768-9.68746.45242-19.366,1.07192a2.558,2.558,0,0,0-2.5,2.5,2.522,2.522,0,0,0,2.5,2.5q33.62642-2.14554,67.33959-2.284c5.98505-.02316,12.16707-.36451,17.95876,1.40638,3.084.943,4.40244-3.88171,1.3292-4.8214Z" transform="translate(-257.63931 -236.15931)"/><path class="cls-1" d="M466.7946,269.71134a458.99788,458.99788,0,0,1-.09181,52.57594l6.3292-4.8214c-26.59547-7.43174-54.41983-6.09256-81.73419-6.57542-7.70713-.13625-15.41308-.43121-23.09313-1.11018-2.61259-.231-5.11355,2.46469-5,5a5.13062,5.13062,0,0,0,5,5c26.86754,2.37528,53.95893-.096,80.77293,3.10479q.58031.06927,1.16017.142.4638.05832.92729.119-.71972-.09822-.17117-.02287c.92537.13147,1.85062.26244,2.77434.40527q2.77136.42852,5.52633.95479,5.642,1.08156,11.179,2.62536a5.06459,5.06459,0,0,0,6.32919-4.82139,458.99788,458.99788,0,0,0,.09181-52.57594c-.145-2.60694-2.19592-5.12559-5-5-2.58458.11576-5.15557,2.20308-5,5Z" transform="translate(-257.63931 -236.15931)"/><path class="cls-1" d="M468.14069,318.5888a6.94272,6.94272,0,0,0,3.43128-4.6513,5.18754,5.18754,0,0,0-3.4922-6.15059,261.60226,261.60226,0,0,0-71.46031-15.16164q-10.23784-.718-20.50877-.60954a5,5,0,0,0,0,10,260.36252,260.36252,0,0,1,35.76357,2.1398c1.50181.19308-.59781-.08772.3075.0407.38927.05522.779.10767,1.16822.16291q.93427.13256,1.86754.272,2.33316.34857,4.65966.74,4.42013.74326,8.81241,1.64138,8.78271,1.79508,17.4256,4.20144,9.773,2.7219,19.30618,6.21576l-3.49219-6.15059q-.20274.87048.33327-.30158a2.03528,2.03528,0,0,1,.83105-1.02344,5.00081,5.00081,0,1,0,5.04719,8.63471Z" transform="translate(-257.63931 -236.15931)"/><path class="cls-1" d="M461.60384,306.80369a348.87587,348.87587,0,0,0-76.42138-7.91077q-10.66811.08648-21.31526.84133c-2.60342.18293-5.12681,2.1687-5,5,.1143,2.55193,2.20584,5.19633,5,5a342.887,342.887,0,0,1,37.798-.5769q9.32676.37482,18.62379,1.25829,4.70655.44726,9.39952,1.02447,1.08285.13322,2.16483.27342.60109.07785,1.20193.15775c-.215-.02873-.89932-.124.11235.01642q2.4015.33333,4.79892.69443,10.54743,1.60213,20.97891,3.86435c2.55008.55116,5.528-.75856,6.15059-3.49219.57386-2.5195-.75817-5.55968-3.49219-6.1506Z" transform="translate(-257.63931 -236.15931)"/><path class="cls-1" d="M439.87768,308.08471a574.15838,574.15838,0,0,0-60.978-5.12456q-8.65715-.253-17.31895-.23771a5,5,0,1,0,0,10,561.78264,561.78264,0,0,1,59.77336,3.09695q4.06026.429,8.114.91739,2.08821.25155,4.17448.51875.98176.12577,1.96308.255.49065.06464.9812.13012c-.8787-.11754.45011.06191.63249.08684a5.52132,5.52132,0,0,0,3.8528-.504,5.096,5.096,0,0,0,2.2978-2.98816c.53523-2.34991-.72072-5.77182-3.4922-6.15059Z" transform="translate(-257.63931 -236.15931)"/><path class="cls-1" d="M472.9853,265.64884,444.51,251.30636l-5.04719,8.63471a69.33074,69.33074,0,0,1,8.29081,4.17849q2.08524,1.23588,4.08,2.61641.91378.632,1.8065,1.29374c.11318.0838,1.14372.8663.62127.46282s.495.39587.60473.48423a69.21252,69.21252,0,0,1,6.82426,6.29632q1.59747,1.68628,3.07841,3.478c.25734.31153.50878.62749.76344.94117.66743.82212-.48269-.66329.20969.264.48364.64769.96247,1.29767,1.42928,1.95773l6.841-6.841c-9.68209-7.3241-19.73018-14.65631-31.68931-17.69856a5.09269,5.09269,0,0,0-5.64655,2.2978c-.96157,1.82-.97373,4.64769.78182,6.05913,9.41428,7.569,18.88843,15.23116,26.43743,24.74166l7.07107-7.07106c-8.67814-7.60407-17.58515-15.39737-28.25491-20.0769-2.31229-1.01412-4.80979-.83525-6.45,1.28779a4.97194,4.97194,0,0,0,.39091,6.5651c4.48626,4.02681,9.04833,7.98483,13.42607,12.13009a76.767,76.767,0,0,1,5.60082,5.80962q.68636.80264,1.34,1.63243c-.43422-.55138-.14529-.18569.1111.16344q.31191.42474.6137.85672a39.2175,39.2175,0,0,1,2.21838,3.59176l6.841-6.84095-14.50942-8.82472-7.14957-4.34841c-3.39226-2.0632-7.671-2.31406-10.04132,1.42119-1.07522,1.69439-.88014,4.72759.78182,6.05912a272.60506,272.60506,0,0,1,21.78737,19.46142l6.05913-7.85289-27.12535-11.95118c-2.38721-1.05178-5.482-.77825-6.841,1.79376a5.09332,5.09332,0,0,0,1.79376,6.841l30.28967,17.89025,1.1944-9.13875c-1.03018.34028-2.08139.51248-3.12075.794a5.558,5.558,0,0,0-3.83933,5.34372,7.15061,7.15061,0,0,0,5.06863,6.70108c5.44111,1.786,9.44488-2.94938,10.53323-7.75155a36.76974,36.76974,0,0,0-3.59857-25.59954c-2.3235-4.28224-9.558-2.43533-9.31736,2.5236l.1963,4.04523c.12657,2.60844,2.20912,5.125,5,5,2.60042-.11648,5.13577-2.20192,5-5l-.1963-4.04523-9.31735,2.52359c.30609.56413.60073,1.13294.87423,1.71375.04291.09112.42526.915.18405.37837-.24032-.53471.11644.29511.15375.39131a31.24542,31.24542,0,0,1,1.11328,3.457q.24146.93136.424,1.87667.08163.41986.15186.84168c.01845.11084.1439,1.024.06626.39307-.08719-.70859.04331.47479.05552.61q.03846.42585.06583.85272.061.96018.06257,1.92285c.00275,1.21732-.10524,2.41443-.20309,3.62594.03643-.45106.09543-.59643.00468-.05871-.04744.28107-.09317.56231-.14576.8425-.11024.58729-.23244,1.174-.38863,1.75091-.0595.21977-.1507.43981-.199.66131-.13233.60638.42889-.76449.1169-.23682-.04065.06876-.32446.74055-.41918.729.0354.00431.69175-.83353.13441-.27765a2.77391,2.77391,0,0,1,2.58875-.71223,1.79057,1.79057,0,0,1,.90979.49515q.44349.39.16511.12134-.44687-.47109.34243.65369a2.95722,2.95722,0,0,1,.0596,3.57222l-2.98815,2.2978a22.92311,22.92311,0,0,0,3.12074-.794c4.0165-1.32672,5.0237-6.877,1.1944-9.13875l-30.28967-17.89025-5.04719,8.63471,27.12535,11.95118c2.31026,1.01788,4.81174.83272,6.45-1.28779a5.00279,5.00279,0,0,0-.39091-6.5651,272.59952,272.59952,0,0,0-21.78737-19.46141l.78182,6.05913q-6.59067,1.27443-3.92438,1.89715-1.03979-.48253-.347-.11451a10.99333,10.99333,0,0,0,1.26168.76737l2.94394,1.79052,6.09817,3.70894,11.986,7.29a5.063,5.063,0,0,0,6.05913-.78182,5.1716,5.1716,0,0,0,.78181-6.05913,57.90491,57.90491,0,0,0-11.13851-13.78423c-4.46555-4.25824-9.14375-8.30252-13.73515-12.42371l-6.05913,7.85289a72.80437,72.80437,0,0,1,14.13966,8.42316q.34956.26013.697.52308c-.01752-.01325,1.01839.78283.53242.40486-.48622-.37817.54326.4291.52564.41517q.3426.27077.68348.54372,1.62093,1.29748,3.20823,2.63626c2.17311,1.82661,4.30953,3.69621,6.44457,5.567,1.966,1.72268,5.16221,2.07941,7.07107,0,2.00494-2.18407,1.7429-4.87529,0-7.07106-7.549-9.51051-17.02315-17.1727-26.43743-24.74167l-4.86473,8.35693c1.3837.352,2.752.75691,4.09977,1.22872q1.0066.35237,1.99794.74658c.123.04886,1.41553.62009.38068.151.259.11741.52093.22855.7801.34568a70.694,70.694,0,0,1,7.74015,4.13993c4.98053,3.04511,9.65082,6.56024,14.30187,10.07856,1.68117,1.27174,4.69216.70728,6.05913-.78182,1.41522-1.54167,2.08732-4.21317.78181-6.05913A74.04871,74.04871,0,0,0,444.51,251.30636a5.49622,5.49622,0,0,0-3.8528-.504,5.09937,5.09937,0,0,0-2.98815,2.2978c-1.20049,2.27217-.70022,5.58478,1.79376,6.841l28.47533,14.34248c2.33326,1.17522,5.52615.69475,6.84094-1.79376,1.2005-2.27217.70022-5.58479-1.79375-6.841Z" transform="translate(-257.63931 -236.15931)"/><path class="cls-1" d="M460.949,296.78668a283.08846,283.08846,0,0,0-83.75829-14.12857q-11.78629-.19522-23.55767.61681c-2.60391.178-5.12665,2.17228-5,5,.11449,2.55622,2.20544,5.191,5,5a277.74313,277.74313,0,0,1,41.9186.29666q5.1684.42936,10.31844,1.05025,1.1702.14118,2.33916.29226c.10545.01362,1.65182.22127.5403.06945q.46715.06381.93411.12877,2.80166.39107,5.595.839,10.24131,1.64237,20.34108,4.04577,11.46741,2.73009,22.67088,6.43237a5.03884,5.03884,0,0,0,6.1506-3.49219,5.11505,5.11505,0,0,0-3.4922-6.1506Z" transform="translate(-257.63931 -236.15931)"/><path class="cls-1" d="M441.266,286.83923a261.499,261.499,0,0,0-60.41187-15.02908q-8.62125-1.09863-17.30258-1.605a5.03019,5.03019,0,0,0-5,5,5.11476,5.11476,0,0,0,5,5q7.62042.45126,15.20461,1.34671,1.74915.208,3.49538.44014c-.91668-.12244-.106-.01344.06719.011.31009.04378.62031.08654.93034.1307q1.04635.149,2.09144.3067,3.832.578,7.64531,1.27193a255.59118,255.59118,0,0,1,29.4176,7.17706q8.19417,2.52231,16.20418,5.59256c2.44819.93612,5.59064-1.03375,6.15059-3.4922a5.13984,5.13984,0,0,0-3.49219-6.15059Z" transform="translate(-257.63931 -236.15931)"/><path class="cls-1" d="M441.05488,277.65278a169.26348,169.26348,0,0,0-61.0193-20.21074,163.63731,163.63731,0,0,0-17.79344-1.35643,5,5,0,1,0,0,10q7.69923.16661,15.35738,1.053c.665.07775,1.32928.16111,1.99349.24547.19827.02518.98283.14022-.002-.00112.29454.04228.58943.08217.884.12443q1.98825.28519,3.969.62,3.74116.63148,7.45017,1.43773,7.5246,1.63551,14.873,3.97357,3.72175,1.18478,7.384,2.54669,1.67341.62247,3.33292,1.28157.82967.32952,1.65568.66817.413.16936.825.34091a3.35629,3.35629,0,0,1,.45.19138,167.35157,167.35157,0,0,1,15.59294,7.72,5.0008,5.0008,0,0,0,5.04719-8.6347Z" transform="translate(-257.63931 -236.15931)"/><path class="cls-1" d="M434.06294,280.744a231.04529,231.04529,0,0,0-48.39454-16.83244q-7.00817-1.57814-14.10654-2.70342c-2.57234-.41029-5.50555.66018-6.1506,3.4922-.54642,2.399.73022,5.71005,3.4922,6.15059a225.24714,225.24714,0,0,1,47.93391,13.18564q1.61421.64377,3.21823,1.31239c.04082.01694.74664.313.25731.10685-.47-.198.38842.16608.46922.20066q.85209.36462,1.70112.73631,3.29019,1.44036,6.5325,2.98593c2.35786,1.12111,5.50667.73163,6.84095-1.79376,1.1765-2.22676.728-5.64191-1.79376-6.84095Z" transform="translate(-257.63931 -236.15931)"/><path class="cls-1" d="M441.07125,267.048a244.7633,244.7633,0,0,0-59.684-17.55182q-9.03688-1.42083-18.15928-2.2138c-2.613-.22421-5.11377,2.45987-5,5a5.12915,5.12915,0,0,0,5,5q3.703.31774,7.39528.74425,1.8458.215,3.688.45884c-1.033-.13524.76416.10784.972.13739q1.03484.14716,2.06831.30367,7.46416,1.12892,14.8471,2.72768a239.53067,239.53067,0,0,1,28.813,8.15385q3.94391,1.38794,7.83749,2.91357,1.9464.76272,3.87916,1.5596.42948.17709.85827.35584c.31107.12969.96343.40727.30425.12666q1.06863.45492,2.13328.919c2.39144,1.04132,5.47836.78522,6.841-1.79376,1.14157-2.16065.76659-5.72608-1.79375-6.84095Z" transform="translate(-257.63931 -236.15931)"/><path class="cls-1" d="M428.64348,253.9731a48.36034,48.36034,0,0,1-5.638-1.92507q-.79565-.33011.01279.00763-.39294-.16888-.78438-.34121-.58772-.25859-1.17271-.52333c-.911-.411-1.81791-.831-2.7264-1.24748a65.20316,65.20316,0,0,0-11.91056-4.55757,46.76808,46.76808,0,0,0-14.04446-.76546c-4.5444.30483-9.08681.6425-13.63.96462-2.60325.18458-5.12686,2.16752-5,5,.11424,2.55052,2.206,5.1981,5,5,4.5432-.32212,9.08558-.66065,13.63-.96462,2.09715-.14027,4.1995-.25367,6.30211-.20352a29.65181,29.65181,0,0,1,3.37463.23848c-.98273-.13686.48566.10932.67465.14715q.72683.1455,1.44557.32691a42.03494,42.03494,0,0,1,5.41782,1.81188q.29615.11862.59073.24109-.8097-.34455-.01757-.005c.39059.17247.78235.34219,1.17221.51629.91177.40718,1.81862.82522,2.726,1.242a75.12652,75.12652,0,0,0,11.91919,4.67995,5.00126,5.00126,0,1,0,2.65839-9.64279Z" transform="translate(-257.63931 -236.15931)"/><path class="cls-1" d="M467.59038,318.39309a33.07121,33.07121,0,0,0-10.88723,3.01616,31.58459,31.58459,0,0,0-8.20379,5.91852c-5.16286,5.09608-8.53328,11.78057-10.50556,18.70094a5.00126,5.00126,0,1,0,9.64279,2.65839c.42663-1.497.93046-2.95921,1.48022-4.41481.33708-.8925-.18183.36729.06465-.17471.14608-.32123.28568-.645.435-.96484q.44731-.95789.94683-1.8906a35.41488,35.41488,0,0,1,2.45071-3.93933c.07275-.10114.78177-1.01394.37041-.50473-.41248.5106.32643-.38418.406-.47788q.72015-.84839,1.501-1.64217.69329-.70324,1.43329-1.35769c.24682-.21819.501-.42729.75082-.64181.99422-.85359-.83225.57112.23519-.18808a29.20032,29.20032,0,0,1,3.51277-2.18111c.29128-.1505.58859-.288.88154-.43488,1.16517-.58419-.9694.34462.24875-.11645.61227-.23174,1.22707-.45222,1.85453-.64006q.94044-.28154,1.90394-.47992a4.57752,4.57752,0,0,1,1.17915-.20959l-.51595.06561q.40729-.052.81494-.101c2.58678-.3156,5.13109-2.07338,5-5-.10916-2.43732-2.21927-5.33927-5-5Z" transform="translate(-257.63931 -236.15931)"/><path class="cls-1" d="M452.112,346.44842c.3675-.88436-.2376.54027.01129-.03075.10115-.23207.19979-.46525.30085-.69737q.3411-.7834.69387-1.56165.7056-1.55637,1.45848-3.09079a60.86275,60.86275,0,0,1,3.23385-5.95352c.28983-.45464.59725-.89536.90489-1.33794.35579-.51184.01814-.12277-.1334.15441a4.433,4.433,0,0,1,.57223-.68929,21.44951,21.44951,0,0,1,2.13827-2.08616c.48344-.42284-.78932.53032-.24163.19616.22823-.13924.44142-.306.66853-.44841.40855-.25615.85011-.45285,1.26154-.69993.54365-.3265-.91577.32467-.31669.12059.25131-.08561.49739-.18567.75146-.26413.4197-.1296,2.08623-.42584.54127-.22036a5.507,5.507,0,0,0,3.53553-1.46447,5,5,0,0,0,0-7.07106,4.78358,4.78358,0,0,0-3.53553-1.46447,17.31571,17.31571,0,0,0-8.0847,2.97089,25.38265,25.38265,0,0,0-6.10129,6.359c-3.0788,4.45728-5.23226,9.64105-7.30161,14.62084a5.00285,5.00285,0,0,0,.504,3.8528,4.9997,4.9997,0,0,0,6.84095,1.79375,5.90345,5.90345,0,0,0,2.2978-2.98815Z" transform="translate(-257.63931 -236.15931)"/><path class="cls-1" d="M440.19878,337.42512a688.73967,688.73967,0,0,1-76.36265-1.3522q-10.88714-.80007-21.74473-1.94633c-2.60979-.27459-5.11216,2.49577-5,5,.13185,2.94363,2.20418,4.70583,5,5a688.73346,688.73346,0,0,0,76.281,3.77992q10.91631-.067,21.82636-.48139c2.61052-.09824,5.12409-2.22944,5-5a5.07253,5.07253,0,0,0-5-5Z" transform="translate(-257.63931 -236.15931)"/><path class="cls-1" d="M445.78443,334.77785c-1.08049-4.76212-6.20651-4.89162-10.10349-5.239q-5.06428-.45139-10.13607-.81246-9.89566-.7044-19.81182-1.06455-20.0763-.72927-40.17056-.04624-11.40254.38753-22.78282,1.23175c-2.60251.19187-5.1271,2.16229-5,5,.114,2.54424,2.20655,5.20595,5,5a572.99338,572.99338,0,0,1,76.33057-.54246q5.44664.32587,10.88639.7559,2.71971.215,5.43727.456,1.23523.10956,2.47.2245l.49388.04619q.921.093.13308.00372-.69242-.10691-.057.03566a3.54761,3.54761,0,0,1-2.33223-2.39067,5.04085,5.04085,0,0,0,6.1506,3.4922,5.11142,5.11142,0,0,0,3.49219-6.1506Z" transform="translate(-257.63931 -236.15931)"/><path class="cls-1" d="M441.161,326.685c-11.53959-1.26916-23.00462-2.25243-34.62223-1.62611-5.75882.31047-11.49991.88648-17.22691,1.55626-5.32274.6225-10.63584,1.46254-15.97757,1.90343-1.32043.109-2.6446.18325-3.96973.19379-.69074.0055-1.38183-.00438-2.07189-.03665a6.26294,6.26294,0,0,1-2.04535-.1601c.64055.32247.57465.09351.11936.01436-.39929-.06941-.79723-.13721-1.19387-.221q-.98485-.20816-1.94776-.50726-.38356-.11969-.76231-.25551c-.13433-.048-1.15329-.50056-.52458-.19617.70139.33957-.4888-.25816-.50111-.26454-.36328-.18823-.71662-.393-1.068-.60238a5.0008,5.0008,0,1,0-5.04719,8.6347c9.65071,5.75064,21.32957,3.15946,31.79717,1.87989,11.60773-1.41895,23.28874-2.55573,34.996-2.06254,6.7047.28244,13.37882,1.0166,20.046,1.74988,2.60887.28693,5.11177-2.50455,5-5-.13232-2.95415-2.20509-4.69261-5-5Z" transform="translate(-257.63931 -236.15931)"/><path class="cls-1" d="M366.79885,339.07562c17.73632,2.86695,35.66423,4.04661,53.60068,4.74679,5.06991.19791,10.141.3628,15.21209.52751a5.04119,5.04119,0,0,0,5-5,5.10151,5.10151,0,0,0-5-5c-17.41141-.56555-34.8466-1.13266-52.17445-3.03124q-1.82787-.20028-3.65347-.42065-.97364-.1177-1.94651-.24148-.36485-.04645-.72956-.09384c-.08778-.01139-1.04688-.13706-.55083-.07118.52834.07017-.27264-.03725-.30739-.04205q-.60729-.08389-1.21436-.16939-.8499-.12033-1.69908-.24567-1.94152-.28691-3.87873-.60159c-2.57163-.41569-5.5064.66392-6.15059,3.4922-.54747,2.40363.73116,5.70429,3.4922,6.15059Z" transform="translate(-257.63931 -236.15931)"/><path class="cls-1" d="M458.67427,323.105a129.58711,129.58711,0,0,0-39.95585-4.50837c-2.60922.11647-5.12468,2.21637-5,5,.11686,2.6091,2.20132,5.12493,5,5a124.92262,124.92262,0,0,1,19.248.61133c.78865.08687,1.57563.18563,2.363.28327.871.108-1.18252-.1755.32147.04645.39241.05791.785.11467,1.17706.17472q2.35251.36032,4.68993.81094,4.79181.92391,9.498,2.22445a5.00126,5.00126,0,1,0,2.6584-9.64279Z" transform="translate(-257.63931 -236.15931)"/><path class="cls-1" d="M445.79025,319.31437a216.22368,216.22368,0,0,0-57.76914.301c-2.601.3558-4.24714,3.81775-3.4922,6.15059.925,2.85847,3.36268,3.87356,6.1506,3.4922q.90612-.12411.12184-.01642.48391-.06332.96811-.12437.84733-.10683,1.69555-.2066,1.81755-.21408,3.63862-.39647,3.39919-.3402,6.8083-.56947,6.93878-.46676,13.89824-.47363a211.61964,211.61964,0,0,1,27.98008,1.84317c2.60378.34467,5.10993-2.54564,5-5-.13452-3.00342-2.21006-4.63069-5-5Z" transform="translate(-257.63931 -236.15931)"/><path class="cls-1" d="M425.97519,322.79162a218.03237,218.03237,0,0,0-50.21926-5.84707q-7.09959.01008-14.18583.49927c-2.604.17707-5.12663,2.1729-5,5,.11453,2.557,2.20538,5.19,5,5a212.49774,212.49774,0,0,1,24.52926-.26033q6.12923.29208,12.23461.93972,1.43575.1523,2.86933.32419.71677.086,1.43294.17679.35808.04543.716.09194c.38467.04964.63428.08739.10185.01287,2.06553.28911,4.12775.59787,6.18478.94272q6.88313,1.15392,13.67791,2.76269c2.54078.59876,5.53559-.79208,6.15059-3.49219a5.07906,5.07906,0,0,0-3.4922-6.1506Z" transform="translate(-257.63931 -236.15931)"/><path class="cls-1" d="M383.45917,339.0084c-20.44411.14963-40.89194.29926-61.32551,1.02345q-8.72039.30906-17.43432.77075c-2.60742.13937-5.12542,2.2-5,5,.116,2.58942,2.20271,5.14952,5,5,20.41724-1.09135,40.86345-1.457,61.30629-1.6532q8.72667-.08376,17.45354-.141a5,5,0,0,0,0-10Z" transform="translate(-257.63931 -236.15931)"/><path class="cls-1" d="M310.40549,340.87708A80.4682,80.4682,0,0,0,271.12528,313.042a5.04234,5.04234,0,0,0-6.1506,3.49219,5.11109,5.11109,0,0,0,3.4922,6.1506c1.78851.57343,3.5567,1.20632,5.29709,1.91294.15655.06356,1.39631.61846.29011.11736.48862.22134.98267.43052,1.47049.65386q1.09749.50247,2.17812,1.04071a74.59163,74.59163,0,0,1,9.50276,5.65057c.7147.5,1.41609,1.01724,2.11681,1.53646q.66862.50944-.05343-.04785.23831.18522.4746.373.55215.43712,1.09614.88437,2.09738,1.72578,4.06494,3.60157,1.9656,1.87407,3.78974,3.8893.94469,1.04429,1.84857,2.12465.38713.463.76677.93231c.13691.16925,1.21243,1.54884.46119.57023a5.5056,5.5056,0,0,0,2.98816,2.2978,5.10994,5.10994,0,0,0,3.85279-.504c2.04224-1.31666,3.4973-4.62182,1.79376-6.841Z" transform="translate(-257.63931 -236.15931)"/><path class="cls-1" d="M275.32533,315.67462q-.21146-1.46868-.412-2.9389c.13.96307-.0566-.44018-.08146-.632q-.09534-.73577-.18739-1.47194-.36822-2.94471-.68389-5.89567-.63132-5.90162-1.052-11.82321-.421-5.9203-.63-11.8532-.10029-2.84221-.15188-5.68587c-.01538-.84646-.0415-1.69572.00819-2.54155q.01378-.29928.04664-.59717-.13279.91251-.01781.35531c.48453-1.22092-.36484.46533.12478-.44428a5.00081,5.00081,0,0,0-8.63471-5.04719c-2.09353,3.88935-1.55073,8.47009-1.41642,12.72493q.199,6.30306.63654,12.59563c.60378,8.67188,1.57,17.31008,2.80863,25.91355.374,2.59791,3.80524,4.25119,6.15059,3.4922,2.84364-.92024,3.89306-3.36627,3.4922-6.15059Z" transform="translate(-257.63931 -236.15931)"/><path class="cls-1" d="M296.49964,244.26938a66.00208,66.00208,0,0,1-5.53242,8.598c.70635-.93306-.02545.02294-.18974.22727q-.43172.53694-.8751,1.06431-.823.9798-1.68423,1.92656-1.72248,1.89275-3.59129,3.64544-1.86723,1.75011-3.86808,3.35012c-.13419.10715-1.20418.89972-.23028.18606-.31751.23267-.62915.47341-.947.70576q-1.11228.81314-2.25891,1.57789-2.12874,1.4196-4.36752,2.66427-1.03243.57362-2.086,1.10789a3.97673,3.97673,0,0,1-1.05861.52407q1.06378-.41736.28236-.175a3.51212,3.51212,0,0,1,3.2643.86693c-1.69184-2.00781-5.35063-1.87415-7.07107,0a5.13218,5.13218,0,0,0,0,7.07107c3.82831,4.54329,10.30774.1774,14.09487-2.15091a71.85334,71.85334,0,0,0,9.86077-7.33237,68.41,68.41,0,0,0,14.89267-18.81015,5.0008,5.0008,0,1,0-8.6347-5.04719Z" transform="translate(-257.63931 -236.15931)"/><path class="cls-1" d="M273.37465,274.19774A20.75565,20.75565,0,0,0,283.354,270.473a45.90706,45.90706,0,0,0,7.59125-7.15352,59.26683,59.26683,0,0,1,6.92454-6.97435c-.54787.446-.13717.10218.18915-.13716q.43557-.31947.88008-.62649.979-.67381,1.99991-1.28342a37.95379,37.95379,0,0,1,4.42663-2.24982c2.41051-1.04055,3.13446-4.76141,1.79376-6.84094-1.61312-2.50207-4.26189-2.90708-6.84095-1.79376a43.69164,43.69164,0,0,0-15.2375,11.46491,62.65438,62.65438,0,0,1-6.32243,6.599c-.35388.2976-.679.52437-.11884.117-.33379.24278-.66666.484-1.01077.71213a18.5206,18.5206,0,0,1-1.76475,1.03961c-.1845.09482-1.37858.55128-.28563.1681-.25478.08932-.50485.19036-.76158.27463-.38394.126-.77441.2356-1.16811.32671-.28224.06532-1.49727.21886-.27409.08215-2.59059.28953-5.13024,2.09214-5,5,.11018,2.45991,2.21616,5.31113,5,5Z" transform="translate(-257.63931 -236.15931)"/><path class="cls-1" d="M376.88311,281.19348l7.76976,7.31511,7.07107-7.07106Q375.47,267.53924,358.25439,254.823c-1.99883-1.479-5.0696-.499-6.45,1.28779-1.42528,1.8448-1.5,4.93052.39091,6.5651,11.10587,9.60025,22.22876,19.24131,32.08049,30.15651l7.07106-7.07107a283.86807,283.86807,0,0,0-35.30245-27.25327l-5.04719,8.6347a76.89329,76.89329,0,0,1,9.5544,5.17272q2.24469,1.43316,4.38452,3.02193c.12091.08977,1.15782.88224.731.54876-.427-.33362.59568.478.71258.57253q1.12194.90723,2.20814,1.85642l6.05913-7.85289a347.24432,347.24432,0,0,0-36.6464-24.32773,5.00667,5.00667,0,0,0-6.05913,7.85288A79.65726,79.65726,0,0,0,357.73115,269.84c2.45008.93065,5.58973-1.02977,6.15059-3.4922a5.13858,5.13858,0,0,0-3.4922-6.15059c-.5349-.20318-1.06845-.40954-1.599-.62392q-.39784-.16077-.79375-.3263.80358.33818.01125-.00316c-1.04137-.47565-2.08341-.94509-3.10879-1.4551q-2.97771-1.48109-5.81081-3.23139c-1.88928-1.167-3.70194-2.43544-5.4909-3.74932q-.67932-.51741-.00975-.00129-.33824-.26407-.67329-.53214-.67011-.53615-1.32732-1.08817-1.3146-1.10422-2.5747-2.27l-6.05913,7.85288a347.247,347.247,0,0,1,36.6464,24.32774c1.979,1.50268,5.08393.48042,6.45-1.28779a4.96339,4.96339,0,0,0-.39091-6.5651,81.22859,81.22859,0,0,0-19.61453-12.736c-2.3754-1.08036-5.49215-.75912-6.84095,1.79376a5.11354,5.11354,0,0,0,1.79376,6.84094q4.44158,2.90188,8.77256,5.96769,2.25789,1.60115,4.483,3.24792,1.01981.75463,2.03241,1.519.55239.41682,1.10264.83644c.12845.098,1.15387.88425.77489.59221-.45657-.35182.50149.39007.58765.45728q.54561.42564,1.08907.854,1.08683.85686,2.16506,1.72458,2.06657,1.6631,4.10023,3.36653,4.15608,3.4805,8.1711,7.124c1.93812,1.75592,5.18286,2.05691,7.07106,0a5.11382,5.11382,0,0,0,0-7.07107c-9.85172-10.9152-20.97461-20.55626-32.08048-30.15651l-6.05913,7.85289q4.07229,3.01323,8.0942,6.09359.57435.44029,1.14762.882l.38206.29462q-.46812-.3614-.05791-.04383c.6974.54406,1.39694,1.08534,2.09358,1.63038q1.99488,1.56079,3.976,3.13907,8.0193,6.3879,15.8101,13.055c1.986,1.69816,5.14717,2.0958,7.07107,0a5.07831,5.07831,0,0,0,0-7.07106l-7.76976-7.31512a5,5,0,0,0-7.07107,7.07107Z" transform="translate(-257.63931 -236.15931)"/><path class="cls-1" d="M366.50462,257.968a131.636,131.636,0,0,0-47.12139-12.04557,5.02826,5.02826,0,0,0-5,5c.13335,2.97724,2.20727,4.66357,5,5,7.33.883,14.7196.77893,22.08255,1.13994,1.84717.09057,3.69325.2108,5.53435.38719q1.317.12616,2.62936.29269c-.90451-.11416.04115.009.41143.066q.65011.10008,1.29826.21281a48.58551,48.58551,0,0,1,10.51593,3.02594l2.6584-9.6428a146.10722,146.10722,0,0,0-24.73574-5.90221c-7.97394-1.17556-16.37839-2.28792-24.432-1.29033a31.17507,31.17507,0,0,0-13.39327,4.4222,5.04863,5.04863,0,0,0-2.3871,4.982c.23573,1.75435,1.66,3.88419,3.5815,4.1568l27.692,3.9288,1.3292-9.8214-28.23743-.52251c-2.86-.05293-4.78678,2.3427-5,5-.46229,5.76133,6.11523,7.399,10.28415,8.89961l11.94015,4.29791,1.3292-9.82139-14.21633.69323c-4.95783.24176-9.92908.19541-14.50886,2.34875a4.95658,4.95658,0,0,0-2.3871,4.98195,5.05418,5.05418,0,0,0,3.5815,4.15679l10.954,3.51379,1.3292-9.82139c-7.03318.44045-14.0386,1.25755-20.99353,2.39051l2.65839,9.64279a31.38032,31.38032,0,0,0,7.35837-2.5813,4.93787,4.93787,0,0,0,2.47641-4.31736,5.25762,5.25762,0,0,0-2.47641-4.31735l-2.125-1.61669,1.01193,7.85289,11.52961-10.58814a5.03822,5.03822,0,0,0,0-7.07107,5.10951,5.10951,0,0,0-7.07107,0l-11.5296,10.58814a4.80841,4.80841,0,0,0-1.37517,4.20013,5.22314,5.22314,0,0,0,2.3871,3.65276l2.125,1.61669v-8.63471q-.39012.19233-.78685.37066.79439-.32267-.00932-.001c-.40926.14787-.81472.30337-1.22872.43843a26.58407,26.58407,0,0,1-2.94468.76514,5.03222,5.03222,0,0,0-3.4922,6.1506c.90762,2.80465,3.37624,3.94414,6.15059,3.49219q2.38316-.38822,4.77391-.72319l.47834-.06582q-.67781.091-.13262.01938c.39937-.04885.79819-.10266,1.19749-.15212q1.198-.14838,2.39774-.28172,4.79937-.53384,9.62028-.82983a5.00794,5.00794,0,0,0,1.3292-9.8214l-10.954-3.51379,1.1944,9.13875c-.96741.45486.41179-.13432.64434-.2017.49376-.14306.9928-.24315,1.4959-.34581,1.387-.283-.9933.05428.42492-.05567.44319-.03437.88561-.07448,1.32931-.10257,2.18607-.13837,4.377-.21967,6.56483-.32635l13.21869-.64458a5.00794,5.00794,0,0,0,1.3292-9.8214l-9.644-3.47139-4.59237-1.653c-.45855-.16506-.91592-.34018-1.37771-.49592-1.03812-.35011.35873.25752-.04867.00513-.31517-.19524-.8115-.62518.00445.13608-.871-.81258.8225,1.33948.77557,1.92441l-5,5,28.23743.52251a4.99078,4.99078,0,0,0,4.91069-4.3354c.29563-2.20012-1.11773-5.13644-3.5815-5.486l-27.692-3.9288,1.1944,9.13875a22.31946,22.31946,0,0,1,2.11444-1.226c.36162-.182.72932-.351,1.09947-.51485-.99021.43827.38442-.11622.69269-.21974a32.75259,32.75259,0,0,1,4.95308-1.16312c.5912-.101-.274.02714-.30911.04113a2.65539,2.65539,0,0,1,.61562-.06823q.61774-.06412,1.23715-.10935c.8983-.0662,1.79853-.10488,2.69909-.12164,1.79862-.03348,3.598.02053,5.39391.11953q2.93769.162,5.86693.45041,1.53952.14983,3.07565.33242.70892.08436,1.417.17569c.04868.00621.828.1126.279.03637-.53072-.07369.423.06185.51386.075q6.00627.86532,11.92616,2.231,6.72609,1.55212,13.28054,3.73991a5.038,5.038,0,0,0,6.1506-3.4922c.667-2.92836-.90226-5.06043-3.4922-6.1506-14.26117-6.00283-30.13837-3.67583-45.13028-5.4818v10q2.859.18363,5.70758.49023.79731.08721,1.59346.1846c.229.02807,1.56923.20655.48874.058q1.36214.1873,2.71985.40535,5.54375.88929,10.99183,2.27762,5.44077,1.38624,10.74159,3.25977,2.5926.91682,5.14274,1.94831.63731.25782,1.27171.52274c-.92768-.38745.30175.1322.492.215q1.471.64023,2.9247,1.31869c2.36726,1.09949,5.499.74623,6.841-1.79376,1.167-2.20876.73873-5.66471-1.79376-6.84095Z" transform="translate(-257.63931 -236.15931)"/><path class="cls-1" d="M303.18011,250.798a68.998,68.998,0,0,0-9.97548,9.02162c-1.51364,1.69646-2.91121,3.48813-4.27994,5.30249-.31825.42186-.63364.84587-.95227,1.26745-.10124.134-.9459,1.1717-.1849.24688-.62672.76163-1.23787,1.52943-1.91724,2.24616-.31276.32995-.63395.65165-.96856.95955q-.28512.26305-.58206.51268-.646.52609.094-.06946a5.5928,5.5928,0,0,1-2.2994,1.30507c1.25122-.36282.062-.05992-.16641.017-.46409.15622-.93486.29227-1.408.41809-.83577.22225-1.6816.40438-2.52755.58293-4.12272.87016-7.93558,1.94065-11.2024,4.74782-2.12157,1.82307-1.7,5.18849,0,7.07107.78959.87439-.29586-.56739.03587.003.15382.26452.33636.5125.484.782.03852.07032.47042,1.09855.21789.40082-.25828-.71359.08263.3007.12708.44663a17.02375,17.02375,0,0,1,.42524,1.83277c.2352,1.25446-.06737-1.0927.01353.19065.01619.2568.04093.513.05568.76993a69.37109,69.37109,0,0,1-.27483,8.99259q-.17585,2.4033-.43576,4.7994-.12993,1.19784-.2808,2.39325c-.0221.17514-.17355,1.26246-.04263.343-.05662.39761-.11227.79534-.17091,1.19266q-.72143,4.888-1.79184,9.71375a5.12148,5.12148,0,0,0,2.2978,5.64655,5.24075,5.24075,0,0,0,6.05913-.78182c.71194-.60484-.61092.32956.19756-.12511.13458-.07569,1.33213-.77168.73272-.44435-.55391.30249.42829-.14292.63775-.20576q.36294-.10887.73176-.19336c.13689-.0315.9539-.2628.2704-.08289-.64287.16921.43528-.033.667-.04355q.67248-.03066,1.34581.00354c.19163.00991.385.0379.57649.04294.597.0157-.362-.06049-.37342-.05924a4.78646,4.78646,0,0,1,1.50111.322c.393.1062.78209.22949,1.16594.365.19749.0697.391.15056.58815.22083.69766.2487-.68539-.37252-.04272-.00617.85228.48583,1.732.8948,2.56235,1.42618q.53241.34072,1.04845.70566c.20757.14635,1.31168,1.013.51.35871.76506.62442,1.52158,1.25507,2.25633,1.91532,6.0366,5.42455,11.2913,11.934,18.59694,15.76207a25.87917,25.87917,0,0,0,14.11878,3.2769c2.59816-.2311,5.12836-2.13411,5-5-.11245-2.51039-2.21-5.24817-5-5a18.14144,18.14144,0,0,1-2.94557.03755c-.20914-.01538-.41747-.0428-.62642-.05852-.59991-.04512.24678.0405.29.03657a5.68762,5.68762,0,0,1-1.646-.34655,29.05807,29.05807,0,0,1-2.81692-.92059c.81337.29635-.04767-.02719-.36957-.18027-.5159-.24534-1.02367-.50812-1.5239-.784-.87593-.483-1.72744-1.01142-2.55405-1.57449-.35287-.24037-.69829-.49069-1.04468-.74019-.74828-.539-.18727-.13616-.03585-.017q-.35037-.27567-.69533-.55825c-1.61173-1.31737-3.13593-2.73806-4.62973-4.18654-5.92557-5.74576-12.131-13.02382-20.66971-14.63117a17.36215,17.36215,0,0,0-14.89471,3.61366l8.35693,4.86473a148.30607,148.30607,0,0,0,3.14612-22.062c.44926-6.79389.795-14.12891-4.08036-19.52793v7.07107q.63057-.531-.1681.11088.29-.20476.59371-.38869c.30343-.18436.62279-.33343.93211-.50543q.74916-.3431-.21868.07944.33294-.12985.67124-.245c.34108-.11681.68608-.22206,1.0328-.32073,1.65662-.47147,3.35678-.764,5.03563-1.14141a21.37158,21.37158,0,0,0,10.9106-5.7815,49.15644,49.15644,0,0,0,4.05616-4.95662c.27819-.36923.55451-.73986.83292-1.10892q.23722-.31526.47657-.62887-.48093.61921-.14.18542c.64443-.78661,1.27853-1.5789,1.94771-2.34512q2.00568-2.29654,4.23148-4.38692,1.11131-1.04364,2.27313-2.0313.58076-.49367,1.17333-.9731.33876-.27378.68135-.54273-.658.50475.02438-.014c2.07879-1.57293,3.37682-4.38549,1.79376-6.84095-1.325-2.05516-4.61013-3.48173-6.84095-1.79376Z" transform="translate(-257.63931 -236.15931)"/><path class="cls-1" d="M370.54642,328.11884c-17.11609.70515-34.17012,1.18591-51.22409-.77167-.59332-.06811.06094.01134.15229.0235-.31375-.04176-.62718-.08636-.94054-.131q-.94013-.134-1.87842-.28059-1.7597-.275-3.51184-.59568-3.62766-.66468-7.21121-1.53894a5.00127,5.00127,0,0,0-2.65839,9.6428c17.15172,4.16862,34.90407,4.65633,52.46822,4.18769,4.93625-.13171,9.87027-.33283,14.804-.53609,2.60988-.10752,5.12439-2.22278,5-5a5.07126,5.07126,0,0,0-5-5Z" transform="translate(-257.63931 -236.15931)"/><path class="cls-1" d="M345.74761,331.14687c-.711.13052-1.423.25328-2.13773.36145-.08986.01361-1.04581.14445-.52634.07815.5197-.06633-.43824.04858-.5282.05884q-2.14895.24511-4.30982.36071c-2.8064.15486-5.61935.16323-8.42826.07825-2.7401-.08289-5.47674-.25531-8.20953-.46852q-2.171-.16938-4.33955-.36775-.96252-.08637-1.92484-.17512c-.19322-.01774-1.515-.24163-.63738-.04082q.5678.09619.15769.01016-2.66069-.66638,2.274,4.361c.9244-2.45223-1.02522-5.5887-3.4922-6.15059a5.13714,5.13714,0,0,0-6.15059,3.49219,6.21612,6.21612,0,0,0,3.03284,7.28514c1.8512.9643,3.98343.96816,6.01833,1.15279,3.45365.31336,6.91014.60538,10.37385.78255a92.45083,92.45083,0,0,0,21.4861-1.17565c2.57848-.47338,4.27342-3.73656,3.4922-6.1506a5.13407,5.13407,0,0,0-6.15059-3.49219Z" transform="translate(-257.63931 -236.15931)"/><path class="cls-1" d="M388.015,318.27271c-12.62544-1.86607-25.3375-2.02358-38.07508-2.02571-6.065-.001-12.1316.00844-18.19429-.18405-3.15618-.10021-6.31108-.255-9.45976-.49654q-2.014-.15453-4.02384-.35867-1.114-.11394-2.22618-.24506c-.44439-.05251-.8882-.10922-1.33229-.16407a2.367,2.367,0,0,1-.443-.06112,101.355,101.355,0,0,1-19.96653-4.87606c-2.46163-.89639-5.58407,1.0049-6.1506,3.4922a5.1309,5.1309,0,0,0,3.4922,6.15059c23.62307,8.60232,49.17309,6.21306,73.81265,6.89246,3.48311.096,6.96508.25269,10.44006.512q2.48508.18546,4.96388.44492,1.35.14242,2.69726.31054.4488.05614.89729.11514c-1.16606-.15445.71155.10688.90984.13619a5.48486,5.48486,0,0,0,3.85279-.50405,5.09583,5.09583,0,0,0,2.2978-2.98815c.5407-2.3739-.72521-5.74163-3.49219-6.15059Z" transform="translate(-257.63931 -236.15931)"/><path class="cls-1" d="M378.0924,321.94448q-18.912.12147-37.79728-1.13822-9.49615-.63808-18.96416-1.62943-2.17818-.2281-4.35434-.47552-1.05452-.12111-2.10789-.25184c-.23843-.02981-1.27-.16433-.30874-.03484q-.7014-.09449-1.40141-.19948a69.78023,69.78023,0,0,1-8.75051-1.8113,46.64331,46.64331,0,0,1-4.61826-1.56815c-.21939-.08777-1.13251-.49233-.26909-.10858-.41425-.18411-.82809-.36871-1.2389-.56048q-1.02744-.47962-2.03666-.997c-2.96933-1.51672-5.82531-3.24185-8.66893-4.97942a5.0008,5.0008,0,1,0-5.04719,8.6347,86.82723,86.82723,0,0,0,16.5302,8.37576c6.06314,2.11144,12.50438,2.896,18.85409,3.60662q19.15031,2.14313,38.42853,2.82429,10.87072.38739,21.75054.31293a5,5,0,0,0,0-10Z" transform="translate(-257.63931 -236.15931)"/><path class="cls-1" d="M366.60485,307.80772c-1.34168.38477-2.69392.7261-4.06051,1.01089q-.90759.18914-1.82109.34864-.57048.09985-1.14284.18812-.3432.05413-.68718.10312.73163-.09423.18119-.02472c-2.77443.31462-5.54781.51485-8.34068.55646a150.91127,150.91127,0,0,1-17.07836-.91786q-4.07577-.40285-8.14657-.857-1.984-.21906-3.96595-.4556-.88182-.106-1.763-.21714-.55086-.06957-1.10142-.14149-.33037-.04293-.6606-.087.78315.10514.22884.02912a147.33848,147.33848,0,0,1-15.8523-3.023,85.5604,85.5604,0,0,1-8.36866-2.61817c-.684-.25509-1.36089-.527-2.03995-.79472-1.30772-.5155.56187.262-.21913-.08968-.333-.15-.66945-.29248-1.00229-.44295q-2.2044-.99656-4.32886-2.15386a5.00081,5.00081,0,0,0-5.0472,8.6347c9.99508,5.41358,21.04531,8.19091,32.22177,9.84748,5.88447.8722,11.7988,1.51983,17.71492,2.1328,5.82914.604,11.677,1.13717,17.54188,1.16372a72.93311,72.93311,0,0,0,20.3964-2.54906,5.00126,5.00126,0,1,0-2.6584-9.64279Z" transform="translate(-257.63931 -236.15931)"/><path class="cls-1" d="M366.94482,299.4758q-1.08434.17759-2.17091.34027c-.3565.05276-1.904.25953-.847.12446-1.453.18568-2.90764.35453-4.36575.49486q-3.936.37878-7.89019.519a133.10839,133.10839,0,0,1-16.24253-.41752q-1.97015-.17109-3.93472-.40022-.4365-.05091-.87268-.10467c.01389.00171-1.41565-.17928-.643-.07913.77248.10013-.65517-.09248-.6415-.09053q-.65255-.09346-1.30417-.19335-3.90956-.59922-7.77944-1.4279A133.53,133.53,0,0,1,304.601,293.879q-2.18-.75379-4.33269-1.58367-1.02489-.39506-2.043-.80724c-.33938-.1374-.67753-.27774-1.01645-.41628a2.44765,2.44765,0,0,1-.42444-.18c-2.81934-1.23545-5.60265-2.53636-8.33859-3.94795-2.32236-1.19822-5.5345-.679-6.84094,1.79375-1.21076,2.29161-.688,5.5605,1.79375,6.841a138.95685,138.95685,0,0,0,66.5157,15.42661,141.30626,141.30626,0,0,0,19.68893-1.88659c2.58864-.424,4.26233-3.77082,3.4922-6.15059-.907-2.80285-3.37672-3.94649-6.15059-3.4922Z" transform="translate(-257.63931 -236.15931)"/><path class="cls-1" d="M377.06963,293.94012c-10.79005-3.52583-22.09388-5.00423-33.32621-6.33219-2.75064-.32519-5.5028-.63742-8.25309-.96562q-2.00514-.23928-4.00854-.49294-.42108-.05371-.842-.10833c-.00716-.00093-1.38785-.18167-.5969-.07726.79046.10433-.58754-.08073-.59519-.08178q-.629-.08707-1.25756-.17705a147.58318,147.58318,0,0,1-16.06969-3.095,90.3531,90.3531,0,0,1-8.73613-2.71742q-.97592-.36143-1.942-.74869c.0022.00088-1.26249-.51729-.559-.22432.59925.24958-.6129-.26888-.744-.32719q-2.20579-.98076-4.33847-2.1115c-2.312-1.21948-5.54226-.66427-6.841,1.79376-1.2203,2.30967-.67648,5.538,1.79376,6.841,10.06581,5.30922,21.08332,8.1262,32.2701,9.8586,5.75728.89158,11.54593,1.5659,17.332,2.23793,2.823.32788,5.6461.65637,8.46516,1.01714q.42258.05408.84505.10907c.00484.00063,1.39042.18433.60195.0785-.78825-.1058.59575.08245.6008.08315q.42145.05856.84274.11837,2.20886.314,4.41127.67125a122.09424,122.09424,0,0,1,18.28856,4.29334,5.04,5.04,0,0,0,6.15059-3.4922,5.11373,5.11373,0,0,0-3.4922-6.15059Z" transform="translate(-257.63931 -236.15931)"/><path class="cls-1" d="M378.87356,289.12951a6.25773,6.25773,0,0,1-1.11173-.44047c.03447.0223.80435.35465.27945.11723-.18065-.08171-.36355-.15868-.54451-.23977q-1.173-.5256-2.319-1.10889c-1.46523-.744-2.89681-1.55343-4.29629-2.41457-1.40219-.86281-2.772-1.7777-4.11458-2.73042q-.97044-.68864-1.92253-1.40257c-.31823-.23829-.63384-.48-.95049-.72033-.45-.3416.18487.14116.22472.17292-.20778-.16559-.41834-.32776-.62671-.49261-5.30861-4.20007-10.27166-8.81124-15.44521-13.17221-3.135-2.64256-6.35321-5.19835-9.70938-7.55534-2.14694-1.50777-5.65128-.45793-6.841,1.79376a5.13089,5.13089,0,0,0,1.79376,6.841q.98133.68917,1.947,1.4.48288.3567.96145.7192c.15966.12087.31813.24334.47785.36413.60126.45472-.9207-.72763.09668.07787q1.96922,1.55913,3.89451,3.17132c2.62345,2.20268,5.19,4.47168,7.77185,6.72266a138.17226,138.17226,0,0,0,16.72535,13.02793,63.52739,63.52739,0,0,0,11.05031,5.512c2.44492.94546,5.59218-1.04054,6.15059-3.4922a5.142,5.142,0,0,0-3.49219-6.15059Z" transform="translate(-257.63931 -236.15931)"/><path class="cls-1" d="M336.00118,265.37977q11.75376,7.87625,22.96971,16.51079.41384.31893-.08685-.0669.36961.2865.73861.57381.738.57463,1.47343,1.15251,1.379,1.08353,2.74887,2.17848,2.73987,2.18979,5.44326,4.42472,5.4968,4.54432,10.83815,9.2717c1.95861,1.73161,5.16773,2.07339,7.07107,0,1.73954-1.895,2.0926-5.221,0-7.07107a436.90656,436.90656,0,0,0-46.14906-35.60875,5.03351,5.03351,0,0,0-6.84095,1.79376,5.11934,5.11934,0,0,0,1.79376,6.841Z" transform="translate(-257.63931 -236.15931)"/><path class="cls-1" d="M330.20215,259.46039l-1.71738-.154c-4.21066-.3776-6.7477,5.80965-3.53553,8.53553a451.45,451.45,0,0,1,36.541,34.69782,5.04386,5.04386,0,0,0,7.07107,0,5.10347,5.10347,0,0,0,0-7.07107,451.45,451.45,0,0,0-36.541-34.69782l-3.53554,8.53554,1.71738.154c2.6124.23427,5.11345-2.46705,5-5a5.13135,5.13135,0,0,0-5-5Z" transform="translate(-257.63931 -236.15931)"/><path class="cls-1" d="M309.15605,263.69078c14.76468,11.43854,25.68205,26.756,38.01749,40.58289,3.53416,3.96148,7.19986,7.80523,11.09578,11.41373a5,5,0,0,0,7.07107-7.07107c-13.6751-12.66621-24.26409-28.16147-37.31091-41.41977a118.07519,118.07519,0,0,0-11.80236-10.57685,5.47112,5.47112,0,0,0-3.53553-1.46446,5.08822,5.08822,0,0,0-3.53554,1.46446c-1.64183,1.78853-2.20824,5.3603,0,7.07107Z" transform="translate(-257.63931 -236.15931)"/><path class="cls-1" d="M306.70868,273.11618q20.60332,23.42594,42.30183,45.85513a5,5,0,1,0,7.07107-7.07107q-21.69174-22.42186-42.30184-45.85513a5.02925,5.02925,0,0,0-7.07106,0,5.12051,5.12051,0,0,0,0,7.07107Z" transform="translate(-257.63931 -236.15931)"/><path class="cls-1" d="M296.35469,273.21634q19.86735,22.12626,38.8858,44.99411c1.67915,2.019,5.35866,1.86541,7.07106,0a5.13589,5.13589,0,0,0,0-7.07106q-19.01451-22.86331-38.8858-44.99411a5.03343,5.03343,0,0,0-7.07106,0,5.11512,5.11512,0,0,0,0,7.07106Z" transform="translate(-257.63931 -236.15931)"/><path class="cls-1" d="M287.36529,274.59093c7.17347,7.21488,13.768,15.0213,20.53043,22.61733l20.89185,23.46718a5.0317,5.0317,0,0,0,7.07107,0,5.11735,5.11735,0,0,0,0-7.07107l-20.89185-23.46718c-6.76247-7.59608-13.35692-15.40241-20.53043-22.61732a5,5,0,0,0-7.07107,7.07106Z" transform="translate(-257.63931 -236.15931)"/><path class="cls-1" d="M279.63886,279.00134a302.87524,302.87524,0,0,1,37.351,39.93535c1.61473,2.07389,5.39867,1.82182,7.07107,0,2.019-2.19942,1.72285-4.8583,0-7.07106a302.87469,302.87469,0,0,0-37.351-39.93536c-1.95115-1.74053-5.17326-2.06736-7.07107,0-1.74625,1.90227-2.0844,5.21166,0,7.07107Z" transform="translate(-257.63931 -236.15931)"/><path class="cls-1" d="M272.40288,280.344q16.92576,19.179,35.1437,37.15884a5,5,0,1,0,7.07107-7.07107Q296.41113,292.464,279.474,273.27292a5.02993,5.02993,0,0,0-7.07107,0,5.11961,5.11961,0,0,0,0,7.07107Z" transform="translate(-257.63931 -236.15931)"/><path class="cls-1" d="M271.42174,288.55055q12.36484,14.50434,26.09343,27.75815a5,5,0,0,0,7.07107-7.07107q-13.71291-13.23713-26.09344-27.75815c-1.703-1.99773-5.34348-1.88194-7.07106,0a5.12893,5.12893,0,0,0,0,7.07107Z" transform="translate(-257.63931 -236.15931)"/><path class="cls-1" d="M270.95962,300.6058q8.12736,9.97587,16.95847,19.3456a5.044,5.044,0,0,0,7.07107,0,5.10325,5.10325,0,0,0,0-7.07106q-8.82578-9.36365-16.95848-19.3456c-1.65913-2.03649-5.37123-1.85171-7.07106,0-1.9858,2.16321-1.7699,4.89861,0,7.07106Z" transform="translate(-257.63931 -236.15931)"/><path class="cls-1" d="M269.83435,310.63236l8.63224,7.54471a5.30166,5.30166,0,0,0,3.53553,1.46446,5.08818,5.08818,0,0,0,3.53553-1.46446,5.03088,5.03088,0,0,0,1.46447-3.53554,4.97358,4.97358,0,0,0-1.46447-3.53553l-8.63224-7.54471a5.30167,5.30167,0,0,0-3.53553-1.46447,5.08819,5.08819,0,0,0-3.53553,1.46447,5.0309,5.0309,0,0,0-1.46447,3.53553,4.9736,4.9736,0,0,0,1.46447,3.53554Z" transform="translate(-257.63931 -236.15931)"/><path class="cls-1" d="M291.717,239.32684c-.08215-.59053.02906.34419.03765.44721q.0372.446.05279.89345.02737.78266-.01053,1.56589-.02152.44709-.064.89284-.02124.22283-.04767.44509.06336-.44176-.00159.00073c-.08747.51553-.1802,1.02842-.30163,1.53734q-.18187.76217-.425,1.50786-.13858.42565-.29736.84443-.07925.20932-.16336.41673.16339-.37911-.01121.02038a21.05962,21.05962,0,0,1-1.63724,2.92534,2.51579,2.51579,0,0,0,.89688,3.42047,2.56089,2.56089,0,0,0,3.42048-.89688,21.86867,21.86867,0,0,0,3.37327-15.35008,2.50617,2.50617,0,0,0-3.0753-1.74609,2.58056,2.58056,0,0,0-1.74609,3.07529Z" transform="translate(-257.63931 -236.15931)"/><path class="cls-1" d="M290.99252,240.31161c-.0048.0583-.07747.69059-.03383.392.03742-.25594-.04307.21776-.05159.26213q-.10157.52889-.24919,1.04748c-.10871.38338-.23518.762-.37525,1.135q-.0843.22452-.17539.44664c.13482-.32634-.02335.04091-.08562.17561a38.67926,38.67926,0,0,1-2.21145,3.968,31.3283,31.3283,0,0,0-4.1416,8.53238A2.50063,2.50063,0,0,0,288.49,257.6c.09959-.3948.21016-.78566.34012-1.17161q.07778-.231.163-.45958c-.00605.01628.23946-.60616.14557-.38157-.09387.22453.17744-.38908.17006-.37319q.10344-.22259.212-.44282c.18125-.36876.37238-.73268.56976-1.093.75653-1.38122,1.61016-2.70576,2.42552-4.05225a21.39711,21.39711,0,0,0,3.47656-9.31437,2.51082,2.51082,0,0,0-2.5-2.5,2.56363,2.56363,0,0,0-2.5,2.5Z" transform="translate(-257.63931 -236.15931)"/><path class="cls-1" d="M290.25473,239.31667a13.65634,13.65634,0,0,1-2.47192,5.405c-1.26924,1.93672-2.63118,3.82169-4.05071,5.65091a102.09149,102.09149,0,0,1-9.53009,10.604c-2.31193,2.24632,1.22545,5.78006,3.53553,3.53553a107.76321,107.76321,0,0,0,10.44216-11.78383c3.08331-4.02483,6.39364-8.24949,7.075-13.41162a2.51229,2.51229,0,0,0-2.5-2.5,2.56421,2.56421,0,0,0-2.5,2.5Z" transform="translate(-257.63931 -236.15931)"/><path class="cls-1" d="M261.50577,326.09472c6.8639-.16945,13.15186,3.07976,19.3791,5.54235a103.37836,103.37836,0,0,0,20.60839,5.74422,2.57355,2.57355,0,0,0,3.07529-1.7461,2.52066,2.52066,0,0,0-1.7461-3.0753,103.78492,103.78492,0,0,1-21.02372-5.90946c-6.54852-2.61569-13.0705-5.734-20.293-5.55571-3.21188.07929-3.22406,5.07959,0,5Z" transform="translate(-257.63931 -236.15931)"/><path class="cls-1" d="M262.16749,268.28167c3.21726,0,3.22259-5,0-5-3.21726,0-3.22259,5,0,5Z" transform="translate(-257.63931 -236.15931)"/><path class="cls-1" d="M259.08933,264.45317q-.88227,29.56189-1.44946,59.132c-.06174,3.21874,4.93826,3.21874,5,0q.56718-29.56962,1.44946-59.132c.09606-3.21854-4.904-3.21558-5,0Z" transform="translate(-257.63931 -236.15931)"/></svg>