<?xml version="1.0" encoding="iso-8859-1"?>
<!-- Generator: Adobe Illustrator 19.0.0, SVG Export Plug-In . SVG Version: 6.00 Build 0)  -->
<svg version="1.1" id="Capa_1" xmlns="http://www.w3.org/2000/svg" xmlns:xlink="http://www.w3.org/1999/xlink" x="0px" y="0px"
	 viewBox="0 0 511.994 511.994" style="enable-background:new 0 0 511.994 511.994;" xml:space="preserve">
<circle style="fill:#FFD93B;" cx="255.997" cy="281.626" r="230.368"/>
<g>
	<path style="fill:#F4C534;" d="M486.365,281.626c0,127.28-103.168,230.368-230.368,230.368
		c-72.416,0-137.072-33.408-179.328-85.744c39.52,31.968,89.84,51.04,144.624,51.04c127.2,0,230.368-103.088,230.368-230.368
		c0-54.784-19.072-105.104-51.04-144.624C452.893,144.554,486.365,209.21,486.365,281.626z"/>
	<path style="fill:#F4C534;" d="M243.069,253.434c0,47.168-38.112,85.28-85.104,85.28c-47.168,0-85.296-38.112-85.296-85.28
		c0-46.992,38.112-85.104,85.296-85.104C204.941,168.33,243.069,206.442,243.069,253.434z"/>
</g>
<path style="fill:#FFFFFF;" d="M225.197,253.45c0,37.28-30.128,67.408-67.264,67.408c-37.28,0-67.408-30.112-67.408-67.408
	c0-37.136,30.128-67.264,67.408-67.264C195.069,186.186,225.197,216.314,225.197,253.45z"/>
<path style="fill:#3E4347;" d="M209.005,273.93c-13.488,13.472-35.104,13.472-48.448,0.128
	c-13.472-13.472-13.472-35.088,0.016-48.576c13.344-13.344,34.976-13.344,48.448,0.128
	C222.365,238.97,222.365,260.586,209.005,273.93z"/>
<ellipse transform="matrix(-0.707 -0.7072 0.7072 -0.707 171.205 543.5305)" style="fill:#FFFFFF;" cx="198.194" cy="236.3" rx="8.848" ry="6.08"/>
<path style="fill:#F4C534;" d="M439.325,253.434c0,47.168-38.112,85.28-85.104,85.28c-47.168,0-85.296-38.112-85.296-85.28
	c0-46.992,38.112-85.104,85.296-85.104C401.213,168.33,439.325,206.442,439.325,253.434z"/>
<path style="fill:#FFFFFF;" d="M421.469,253.45c0,37.28-30.128,67.408-67.264,67.408c-37.28,0-67.408-30.112-67.408-67.408
	c0-37.136,30.128-67.264,67.408-67.264C391.341,186.186,421.469,216.314,421.469,253.45z"/>
<path style="fill:#3E4347;" d="M381.581,274.762c0,19.056-15.28,34.336-34.16,34.336c-19.056,0-34.336-15.28-34.336-34.336
	c0-18.864,15.28-34.16,34.336-34.16C366.301,240.602,381.581,255.882,381.581,274.762z"/>
<path style="fill:#FFFFFF;" d="M356.189,255.85c0,3.376-3.872,6.064-8.768,6.064c-5.056,0-8.944-2.704-8.944-6.064
	c0-3.376,3.872-6.08,8.944-6.08C352.317,249.77,356.189,252.474,356.189,255.85z"/>
<g>
	<path style="fill:#F4C534;" d="M430.557,231.578c-9.04-33.872-39.632-58.96-76.336-58.96c-36.848,0-67.472,25.088-76.512,58.96
		C328.653,222.25,379.597,222.25,430.557,231.578z"/>
	<path style="fill:#F4C534;" d="M235.837,231.578c-9.04-33.872-39.632-58.96-76.336-58.96c-36.848,0-67.472,25.088-76.512,58.96
		C133.933,222.25,184.893,222.25,235.837,231.578z"/>
</g>
<path style="fill:#3E4347;" d="M187.757,126.106c-64.48,0.272-114.608-7.936-130.752-22.688c-4.4-4.032-6.656-8.592-6.672-13.552
	C50.189,57.194,153.341,31.242,255.309,22.49c95.936-8.208,178.112-0.24,199.68,19.472c4.4,4.032,6.656,8.576,6.672,13.552
	c0.144,32.656-103.008,58.608-204.96,67.392C232.605,124.954,209.373,126.01,187.757,126.106z M324.365,31.098
	c-20.72,0.096-43.52,1.088-68.048,3.184c-120.4,10.336-194.224,39.312-194.16,55.536c0,1.504,0.96,3.152,2.816,4.864
	c15.904,14.544,88.16,25.248,190.704,16.416c120.384-10.352,194.208-39.312,194.144-55.536c0-1.52-0.96-3.152-2.832-4.848
	C434.909,39.642,390.205,30.81,324.365,31.098z"/>
<path style="fill:#E24B4B;" d="M387.597,105.258c-1.296,1.296-1.888,3.2-1.52,4.976l3.408,19.44c0.736,4.624-4,8.08-8.16,5.968
	l-17.472-9.056c-1.664-0.944-3.68-0.928-5.216,0.016l-17.392,9.216c-4.144,2.144-9.024-1.264-8.208-5.888l3.232-19.456
	c0.224-1.776-0.368-3.68-1.68-4.976l-14.176-13.696c-3.344-3.184-1.456-8.896,3.152-9.616l19.44-2.928
	c1.776-0.24,3.44-1.424,4.256-3.104l8.576-17.584c2.112-4.272,8.048-4.304,10.08-0.048l8.848,17.504
	c0.832,1.664,2.384,2.832,4.288,3.056l19.456,2.768c4.624,0.688,6.432,6.368,3.12,9.6L387.597,105.258z"/>
<path style="fill:#45CBEA;" d="M272.061,31.386c-0.816,0.816-1.184,2.016-0.96,3.136l2.144,12.224
	c0.464,2.896-2.512,5.072-5.12,3.744l-10.992-5.696c-1.04-0.592-2.32-0.576-3.28,0.016l-10.928,5.792
	c-2.608,1.344-5.664-0.8-5.168-3.712l2.032-12.24c0.144-1.12-0.24-2.304-1.056-3.12l-8.912-8.608c-2.096-2-0.912-5.584,1.984-6.048
	l12.224-1.84c1.12-0.144,2.16-0.896,2.672-1.952l5.392-11.056c1.328-2.688,5.056-2.704,6.336-0.032l5.568,11.008
	c0.528,1.04,1.504,1.776,2.688,1.92l12.24,1.744c2.912,0.432,4.048,4,1.968,6.032L272.061,31.386z"/>
<path style="fill:#8CC63E;" d="M155.389,126.33c-0.816,0.816-1.184,2.016-0.96,3.136l2.144,12.224
	c0.464,2.896-2.512,5.072-5.136,3.744l-10.976-5.712c-1.056-0.576-2.32-0.576-3.28,0.016l-10.944,5.792
	c-2.608,1.344-5.664-0.8-5.152-3.712l2.032-12.224c0.144-1.12-0.24-2.304-1.056-3.12l-8.912-8.624c-2.096-2-0.912-5.584,1.984-6.048
	l12.224-1.84c1.12-0.144,2.16-0.896,2.672-1.952l5.392-11.056c1.328-2.688,5.056-2.704,6.336-0.032l5.568,11.008
	c0.528,1.04,1.504,1.792,2.688,1.92l12.24,1.744c2.912,0.432,4.048,4.016,1.968,6.032L155.389,126.33z"/>
<path style="fill:#3E4347;" d="M374.317,400.698c0,5.36-4.416,9.776-9.936,9.776c-15.776,0-28.56,25.568-59.792,4.416
	c-26.224-17.136-34.144,25.808-72.256,0c-8.576-5.6-15.008-6.592-25.088,0c-31.2,21.136-43.856-4.416-59.632-4.416
	c-5.52,0-9.936-4.416-9.936-9.776c0-5.52,4.416-9.952,9.936-9.952c25.024,0,28.208,22.016,48.592,7.888
	c15.184-10.288,30.768-11.104,47.168,0c25.488,17.664,33.936-25.952,72.256,0c21.344,13.952,23.344-7.888,48.752-7.888
	C369.901,390.746,374.317,395.178,374.317,400.698z"/>
<g>
</g>
<g>
</g>
<g>
</g>
<g>
</g>
<g>
</g>
<g>
</g>
<g>
</g>
<g>
</g>
<g>
</g>
<g>
</g>
<g>
</g>
<g>
</g>
<g>
</g>
<g>
</g>
<g>
</g>
</svg>
