<?xml version="1.0" encoding="iso-8859-1"?>
<!-- Generator: Adobe Illustrator 19.0.0, SVG Export Plug-In . SVG Version: 6.00 Build 0)  -->
<svg version="1.1" id="Capa_1" xmlns="http://www.w3.org/2000/svg" xmlns:xlink="http://www.w3.org/1999/xlink" x="0px" y="0px"
	 viewBox="0 0 512 512" style="enable-background:new 0 0 512 512;" xml:space="preserve">
<circle style="fill:#FFD93B;" cx="256" cy="256" r="256"/>
<path style="fill:#3E4347;" d="M407.68,352.848c-24.528,59.712-83.168,101.68-151.664,101.68S128.88,412.56,104.192,352.848
	c-2.32-5.552,1.536-12.032,7.552-13.264c96.128-17.904,192.4-17.904,288.368,0C406.128,340.816,409.984,347.296,407.68,352.848z"/>
<path style="fill:#F4C534;" d="M512,256c0,141.44-114.64,256-256,256c-80.48,0-152.32-37.12-199.28-95.28
	c43.92,35.52,99.84,56.72,160.72,56.72c141.36,0,256-114.56,256-256c0-60.88-21.2-116.8-56.72-160.72
	C474.8,103.68,512,175.52,512,256z"/>
<g>
	<path style="fill:#FFFFFF;" d="M115.264,339.008c18.208,29.632,75.184,32.816,143.168,32.816
		c67.088,0,124.192-3.184,143.168-31.584c-0.512-0.192-0.928-0.544-1.472-0.656C305.312,321.888,210.224,321.76,115.264,339.008z"/>
	<ellipse style="fill:#FFFFFF;" cx="356.432" cy="205.264" rx="81.056" ry="81.008"/>
</g>
<ellipse style="fill:#3E4347;" cx="356.4" cy="205.264" rx="44.192" ry="44.224"/>
<g>
	
		<ellipse transform="matrix(-0.7071 -0.7072 0.7072 -0.7071 507.7102 586.4904)" style="fill:#FFFFFF;" cx="375.333" cy="188.084" rx="11.953" ry="8.064"/>
	<ellipse style="fill:#FFFFFF;" cx="155.616" cy="205.264" rx="81.056" ry="81.008"/>
</g>
<ellipse style="fill:#3E4347;" cx="155.584" cy="205.264" rx="44.192" ry="44.224"/>
<ellipse transform="matrix(-0.7071 -0.7072 0.7072 -0.7071 164.9288 444.4214)" style="fill:#FFFFFF;" cx="174.516" cy="188.049" rx="11.953" ry="8.064"/>
<g>
</g>
<g>
</g>
<g>
</g>
<g>
</g>
<g>
</g>
<g>
</g>
<g>
</g>
<g>
</g>
<g>
</g>
<g>
</g>
<g>
</g>
<g>
</g>
<g>
</g>
<g>
</g>
<g>
</g>
</svg>
