<?xml version="1.0" encoding="iso-8859-1"?>
<!-- Generator: Adobe Illustrator 19.0.0, SVG Export Plug-In . SVG Version: 6.00 Build 0)  -->
<svg version="1.1" id="Capa_1" xmlns="http://www.w3.org/2000/svg" xmlns:xlink="http://www.w3.org/1999/xlink" x="0px" y="0px"
	 viewBox="0 0 512 512" style="enable-background:new 0 0 512 512;" xml:space="preserve">
<circle style="fill:#FFD93B;" cx="256" cy="256" r="256"/>
<path style="fill:#F4C534;" d="M512,256c0,141.44-114.64,256-256,256c-80.48,0-152.32-37.12-199.28-95.28
	c43.92,35.52,99.84,56.72,160.72,56.72c141.36,0,256-114.56,256-256c0-60.88-21.2-116.8-56.72-160.72
	C474.8,103.68,512,175.52,512,256z"/>
<path style="fill:#3E4347;" d="M124.752,345.136c-1.984-6.32,1.536-13.056,7.856-15.04c6.352-1.984,13.056,1.536,15.04,7.856
	c26.064,83.088,190.64,83.056,216.704,0c1.984-6.32,8.704-9.84,15.04-7.856c6.32,1.984,9.84,8.72,7.856,15.04
	C354.192,450.496,157.824,450.528,124.752,345.136z"/>
<path style="fill:#E24B4B;" d="M226.128,189.792c-0.256,38.08-64.176,75.504-64.176,75.504s-63.44-38.256-63.184-76.336
	c0.128-18.544,15.2-33.472,33.744-33.344c13.296,0.08,24.72,7.92,30.032,19.152c5.408-11.168,16.928-18.848,30.24-18.752
	C211.312,156.128,226.24,171.264,226.128,189.792z"/>
<g style="opacity:0.3;">
	<path style="fill:#FFFFFF;" d="M209.616,194.016c-3.488,3.44-9.552,1.696-13.504-3.856c-3.968-5.648-4.336-12.912-0.848-16.336
		c3.488-3.44,9.568-1.616,13.52,3.952C212.736,183.328,213.104,190.592,209.616,194.016z"/>
</g>
<path style="fill:#E24B4B;" d="M413.232,189.792c-0.256,38.08-64.176,75.504-64.176,75.504s-63.424-38.256-63.168-76.352
	c0.128-18.544,15.2-33.472,33.744-33.344c13.296,0.08,24.72,7.92,30.032,19.152c5.424-11.168,16.944-18.848,30.24-18.752
	C398.432,156.128,413.36,171.264,413.232,189.792z"/>
<g style="opacity:0.3;">
	<path style="fill:#FFFFFF;" d="M396.72,194.016c-3.488,3.44-9.552,1.696-13.504-3.856c-3.984-5.648-4.336-12.912-0.848-16.336
		c3.488-3.44,9.568-1.616,13.52,3.952C399.856,183.328,400.224,190.592,396.72,194.016z"/>
</g>
<g>
</g>
<g>
</g>
<g>
</g>
<g>
</g>
<g>
</g>
<g>
</g>
<g>
</g>
<g>
</g>
<g>
</g>
<g>
</g>
<g>
</g>
<g>
</g>
<g>
</g>
<g>
</g>
<g>
</g>
</svg>
