<?xml version="1.0" encoding="iso-8859-1"?>
<!-- Generator: Adobe Illustrator 19.0.0, SVG Export Plug-In . SVG Version: 6.00 Build 0)  -->
<svg version="1.1" id="Capa_1" xmlns="http://www.w3.org/2000/svg" xmlns:xlink="http://www.w3.org/1999/xlink" x="0px" y="0px"
	 viewBox="0 0 512 512" style="enable-background:new 0 0 512 512;" xml:space="preserve">
<circle style="fill:#FFD93B;" cx="256" cy="256" r="256"/>
<path style="fill:#F4C534;" d="M512,256c0,141.44-114.64,256-256,256c-80.48,0-152.32-37.12-199.28-95.28
	c43.92,35.52,99.84,56.72,160.72,56.72c141.36,0,256-114.56,256-256c0-60.88-21.2-116.8-56.72-160.72
	C474.8,103.68,512,175.52,512,256z"/>
<path style="fill:#3E4347;" d="M336.64,403.2c-6.544,7.92-16.128,10.064-25.568,5.168c-34.4-18.256-75.776-18.256-110.16,0
	c-9.44,4.912-19.088,3.296-25.632-4.592c-6.448-7.68-4.64-21.072,8.4-27.936c45.152-23.952,99.472-23.952,144.64,0
	C341.344,382.752,343.088,395.456,336.64,403.2z"/>
<path style="fill:#FFFFFF;" d="M276.624,244.288c0-43.808,35.424-79.376,79.376-79.376c43.792,0,79.376,35.568,79.376,79.376
	c0,43.952-35.584,79.52-79.376,79.52C312.048,323.824,276.624,288.24,276.624,244.288z"/>
<circle style="fill:#3E4347;" cx="340" cy="260.368" r="36.16"/>
<g>
	
		<ellipse transform="matrix(-0.7071 -0.7071 0.7071 -0.7071 382.7391 651.8137)" style="fill:#FFFFFF;" cx="326.365" cy="246.639" rx="6.48" ry="10"/>
	<path style="fill:#FFFFFF;" d="M231.872,244.288c0-43.808-35.424-79.376-79.376-79.376c-43.808,0-79.376,35.568-79.376,79.376
		c0,43.952,35.584,79.52,79.376,79.52C196.448,323.824,231.872,288.24,231.872,244.288z"/>
</g>
<circle style="fill:#3E4347;" cx="168.496" cy="260.368" r="36.16"/>
<ellipse transform="matrix(-0.7071 -0.7071 0.7071 -0.7071 136.4798 549.9219)" style="fill:#FFFFFF;" cx="182.132" cy="246.695" rx="10" ry="6.48"/>
<g>
</g>
<g>
</g>
<g>
</g>
<g>
</g>
<g>
</g>
<g>
</g>
<g>
</g>
<g>
</g>
<g>
</g>
<g>
</g>
<g>
</g>
<g>
</g>
<g>
</g>
<g>
</g>
<g>
</g>
</svg>
