<?xml version="1.0" encoding="iso-8859-1"?>
<!-- Generator: Adobe Illustrator 19.0.0, SVG Export Plug-In . SVG Version: 6.00 Build 0)  -->
<svg version="1.1" id="Capa_1" xmlns="http://www.w3.org/2000/svg" xmlns:xlink="http://www.w3.org/1999/xlink" x="0px" y="0px"
	 viewBox="0 0 512 512" style="enable-background:new 0 0 512 512;" xml:space="preserve">
<circle style="fill:#FFD93B;" cx="256" cy="256" r="256"/>
<path style="fill:#F4C534;" d="M512,256c0,141.44-114.64,256-256,256c-80.48,0-152.32-37.12-199.28-95.28
	c43.92,35.52,99.84,56.72,160.72,56.72c141.36,0,256-114.56,256-256c0-60.88-21.2-116.8-56.72-160.72
	C474.8,103.68,512,175.52,512,256z"/>
<ellipse transform="matrix(-0.8553 -0.5182 0.5182 -0.8553 205.0167 456.9203)" style="fill:#FFFFFF;" cx="166.318" cy="199.829" rx="56.146" ry="56.13"/>
<ellipse transform="matrix(-0.8554 -0.518 0.518 -0.8554 244.5121 419.907)" style="fill:#3E4347;" cx="180.871" cy="175.822" rx="28.048" ry="28.08"/>
<ellipse transform="matrix(-0.4032 -0.9151 0.9151 -0.4032 120.9281 410.8501)" style="fill:#5A5F63;" cx="194.433" cy="165.993" rx="8.016" ry="5.296"/>
<ellipse transform="matrix(-0.8553 -0.5182 0.5182 -0.8553 537.8146 549.8516)" style="fill:#FFFFFF;" cx="345.695" cy="199.819" rx="56.146" ry="56.13"/>
<ellipse transform="matrix(-0.8554 -0.518 0.518 -0.8554 577.3234 512.8577)" style="fill:#3E4347;" cx="360.252" cy="175.84" rx="28.048" ry="28.08"/>
<ellipse transform="matrix(-0.4031 -0.9151 0.9151 -0.4031 372.5758 574.9773)" style="fill:#5A5F63;" cx="373.794" cy="165.987" rx="8.016" ry="5.296"/>
<path style="fill:#3E4347;" d="M370.56,344.4c0,7.696-6.224,13.92-13.92,13.92H155.36c-7.616,0-13.92-6.224-13.92-13.92
	s6.304-13.92,13.92-13.92h201.296C364.352,330.496,370.56,336.704,370.56,344.4z"/>
<g>
</g>
<g>
</g>
<g>
</g>
<g>
</g>
<g>
</g>
<g>
</g>
<g>
</g>
<g>
</g>
<g>
</g>
<g>
</g>
<g>
</g>
<g>
</g>
<g>
</g>
<g>
</g>
<g>
</g>
</svg>
